
<svg xmlns="http://www.w3.org/2000/svg">
    <!--wifi-->
    <symbol id="wifi" viewBox="0 0 36 36">
        <path d="M1.4,15c-0.2,0-0.4-0.1-0.6-0.2c-0.4-0.3-0.5-1-0.1-1.4C5,8,11.4,5,18.3,5c6.8,0,13.2,3,17.6,8.3c0.4,0.4,0.3,1.1-0.1,1.4   c-0.4,0.4-1.1,0.3-1.4-0.1c-4-4.8-9.8-7.6-16-7.6C12,7,6.1,9.8,2.2,14.6C2,14.9,1.7,15,1.4,15z"/>
        <path d="M5.5,20c-0.2,0-0.4-0.1-0.6-0.2c-0.4-0.3-0.5-1-0.2-1.4C8,14.3,12.8,12,18,12c5.2,0,10,2.3,13.3,6.4   c0.3,0.4,0.3,1.1-0.2,1.4c-0.4,0.3-1.1,0.3-1.4-0.2C26.8,16.1,22.6,14,18,14s-8.8,2.1-11.7,5.6C6.1,19.9,5.8,20,5.5,20z"/>
        <path d="M10,25c-0.2,0-0.4-0.1-0.6-0.2c-0.4-0.3-0.5-1-0.2-1.4c2.1-2.8,5.3-4.4,8.8-4.4c3.5,0,6.7,1.6,8.8,4.4   c0.3,0.4,0.2,1.1-0.2,1.4c-0.4,0.3-1.1,0.2-1.4-0.2C23.5,22.3,20.9,21,18,21c-2.9,0-5.5,1.3-7.2,3.6C10.6,24.9,10.3,25,10,25z"/>
	    <circle cx="18" cy="29" r="3"/>
    </symbol>
    <!--有线上网-->
    <symbol id="wired-internet" viewBox="0 0 36 36">
        <path d="M32,29H4c-1.7,0-3-1.3-3-3V6c0-1.7,1.3-3,3-3h28c1.7,0,3,1.3,3,3v20C35,27.7,33.7,29,32,29z M4,5C3.4,5,3,5.4,3,6v20   c0,0.6,0.4,1,1,1h28c0.6,0,1-0.4,1-1V6c0-0.6-0.4-1-1-1H4z"/>
        <rect x="17" y="28" width="2" height="4"/>
        <path d="M26,33H10c-0.6,0-1-0.4-1-1v0c0-0.6,0.4-1,1-1h16c0.6,0,1,0.4,1,1v0C27,32.6,26.6,33,26,33z"/>
        <rect x="2" y="23" width="32" height="2"/>
    </symbol>  
    <!--停车场--> 
    <symbol id="parking-lot" viewBox="0 0 36 36">
        <path d="M18,34C9.2,34,2,26.8,2,18S9.2,2,18,2s16,7.2,16,16S26.8,34,18,34z M18,4C10.3,4,4,10.3,4,18s6.3,14,14,14s14-6.3,14-14   S25.7,4,18,4z"/>
        <path d="M19.5,20H14v-2h5.5c1.4,0,2.5-1.1,2.5-2.5S20.9,13,19.5,13H14v-2h5.5c2.5,0,4.5,2,4.5,4.5S22,20,19.5,20z"/>
        <path d="M15,25L15,25c-0.6,0-1-0.4-1-1V11h2v13C16,24.6,15.6,25,15,25z"/>
    </symbol> 
     <!--卫生间-->  
    <symbol id="toilet" viewBox="0 0 36 36">
        <path d="M12.3,19c-0.4,0-0.7-0.2-0.9-0.5c-0.9-1.8-1.4-3.8-1.4-6C10,6.7,13.6,2,18,2s8,4.7,8,10.5c0,2.1-0.5,4.2-1.4,6   c-0.3,0.5-0.9,0.7-1.3,0.4c-0.5-0.3-0.7-0.9-0.4-1.4c0.8-1.5,1.2-3.2,1.2-5C24,7.8,21.3,4,18,4s-6,3.8-6,8.5c0,1.8,0.4,3.6,1.2,5   c0.3,0.5,0.1,1.1-0.4,1.4C12.6,19,12.5,19,12.3,19z"/>
        <path d="M18,26c-5.5,0-10-3.6-10-8v-1h20v1C28,22.4,23.5,26,18,26z M10.1,19c0.6,2.8,3.9,5,7.9,5s7.3-2.2,7.9-5H10.1z"/>
        <path d="M23.3,34H11.7l2.3-9.2c0.1-0.5,0.7-0.9,1.2-0.7c0.5,0.1,0.9,0.7,0.7,1.2L14.3,32h6.4L19,25.2c-0.1-0.5,0.2-1.1,0.7-1.2   c0.5-0.1,1.1,0.2,1.2,0.7L23.3,34z"/>
    </symbol> 
    <!--热水淋浴-->  
    <symbol id="hot-shower" viewBox="0 0 36 36">
        <path d="M32,34c-0.6,0-1-0.4-1-1V10c0-2.2-1.8-4-4-4c-0.9,0-1.7,0.3-2.4,0.8c-0.4,0.3-1.1,0.2-1.4-0.2S23,5.5,23.4,5.2   C24.4,4.4,25.7,4,27,4c3.3,0,6,2.7,6,6v23C33,33.6,32.6,34,32,34z"/>
        <path d="M24,18.3l-0.7-0.7c-0.8-0.8-3.5-3.4-5.9-5.7c-2-1.9-3.7-3.6-4.1-4l-0.7-0.7l0.7-0.7C14.8,4.9,16.8,4,19,4c4.4,0,8,3.6,8,8   c0,2.1-0.8,4.1-2.3,5.6L24,18.3z M15.4,7.2c0.8,0.8,2,2,3.4,3.3c1.9,1.8,3.9,3.8,5.1,5c0.7-1,1.1-2.2,1.1-3.4c0-3.3-2.7-6-6-6   C17.7,6,16.5,6.4,15.4,7.2z"/>    
        <circle cx="11.5" cy="11.5" r="1.5"/>   
        <circle cx="15.5" cy="15.5" r="1.5"/>
        <circle cx="19.5" cy="20.5" r="1.5"/>
        <circle cx="7.5" cy="15.5" r="1.5"/>
        <circle cx="11.5" cy="19.5" r="1.5"/>   
        <circle cx="15.5" cy="24.5" r="1.5"/>
        <circle cx="4.5" cy="19.5" r="1.5"/>
        <circle cx="8.5" cy="23.5" r="1.5"/>
        <circle cx="12.5" cy="28.5" r="1.5"/>
    </symbol> 
    <!--行李寄存-->  
    <symbol id="luggage-deposit" viewBox="0 0 36 36">
        <path d="M31,32H4c-1.7,0-3-1.3-3-3V11c0-1.7,1.3-3,3-3h27c1.7,0,3,1.3,3,3v18C34,30.7,32.7,32,31,32z M4,10c-0.6,0-1,0.4-1,1v18   c0,0.6,0.4,1,1,1h27c0.6,0,1-0.4,1-1V11c0-0.6-0.4-1-1-1H4z"/>
        <path d="M7,31L7,31c-0.6,0-1-0.4-1-1V10c0-0.5,0.4-1,1-1h0c0.5,0,1,0.4,1,1v20C8,30.6,7.6,31,7,31z"/>
        <path d="M29,31L29,31c-0.6,0-1-0.4-1-1V10c0-0.5,0.4-1,1-1h0c0.5,0,1,0.4,1,1v20C30,30.6,29.6,31,29,31z"/>
        <path d="M8,27H6c-0.5,0-1-0.4-1-1v0c0-0.5,0.4-1,1-1h2c0.5,0,1,0.4,1,1v0C9,26.6,8.6,27,8,27z"/>
        <path d="M30,27h-2c-0.5,0-1-0.4-1-1v0c0-0.5,0.4-1,1-1h2c0.5,0,1,0.4,1,1v0C31,26.6,30.6,27,30,27z"/>
        <path d="M8,15H6c-0.5,0-1-0.4-1-1v0c0-0.5,0.4-1,1-1h2c0.5,0,1,0.4,1,1v0C9,14.6,8.6,15,8,15z"/>
        <path d="M30,15h-2c-0.5,0-1-0.4-1-1v0c0-0.5,0.4-1,1-1h2c0.5,0,1,0.4,1,1v0C31,14.6,30.6,15,30,15z"/>
        <path d="M13.1,9.3l-2-0.3c0.5-2.9,3-5,5.9-5h2c2.8,0,5.3,2,5.9,4.8l-2,0.4C22.5,7.3,20.9,6,19,6h-2C15.1,6,13.4,7.4,13.1,9.3z"/>    
    </symbol> 
    <!--接送服务-->  
    <symbol id="delivery-service" viewBox="0 0 36 36">
        <path xmlns="http://www.w3.org/2000/svg" d="M29,18.313c-0.553,0-1-0.448-1-1v-4c0-2.757-2.243-5-5-5H13c-2.757,0-5,2.243-5,5v4c0,0.552-0.448,1-1,1s-1-0.448-1-1v-4    c0-3.86,3.14-7,7-7h10c3.859,0,7,3.14,7,7v4C30,17.865,29.553,18.313,29,18.313z"/>
        <rect x="9.5" y="29.313" width="17" height="2"/>
        <path d="M5.339,30.045C3.249,28.644,2,26.313,2,23.813v-1.344c0-3.395,2.762-6.156,6.156-6.156h19.687    c3.396,0,6.157,2.761,6.157,6.156v1.344c0,2.486-1.238,4.81-3.313,6.214l-1.121-1.656c1.523-1.031,2.434-2.735,2.434-4.558v-1.344    c0-2.291-1.865-4.155-4.157-4.155H8.157C5.865,18.313,4,20.178,4,22.469v1.344c0,1.833,0.917,3.542,2.453,4.572L5.339,30.045z"/>
        <path d="M8,32.313c-1.654,0-3-1.346-3-3c0-0.527,0.141-1.048,0.406-1.504l1.728,1.008C7.046,28.967,7,29.138,7,29.313    c0,0.552,0.449,1,1,1s1-0.448,1-1h2C11,30.967,9.654,32.313,8,32.313z"/>
        <path d="M28,32.313c-1.654,0-3-1.346-3-3h2c0,0.552,0.448,1,1,1s1-0.448,1-1c0-0.174-0.047-0.347-0.135-0.499l1.73-1.002    C30.86,28.268,31,28.787,31,29.313C31,30.967,29.654,32.313,28,32.313z"/>
        <path d="M11,23.313c0,1.104-0.896,2-2,2s-2-0.896-2-2s0.896-2,2-2S11,22.209,11,23.313"/>
        <path d="M29,23.313c0,1.104-0.896,2-2,2s-2-0.896-2-2s0.896-2,2-2S29,22.209,29,23.313"/>
        <path d="M22.156,6.859h-2V5.641l-4.172,0.047l0.047,1.172h-2V5.641c0-1.077,0.876-1.953,1.953-1.953h4.219    c1.077,0,1.953,0.876,1.953,1.953V6.859z"/>
    </symbol> 
    <!--送货上门-->  
    <symbol id="provide-home" viewBox="0 0 42 36">
        <path d="M13.359,27.391l-0.181-0.892c-0.182-0.89-0.973-1.535-1.881-1.535c-0.909,0-1.7,0.646-1.882,1.535l-0.181,0.892H4.626  c-1.951,0-3.539-1.588-3.539-3.539V10.51c0-1.951,1.587-3.539,3.539-3.539h21.832c1.952,0,3.54,1.587,3.54,3.539v12.773  c0,2.265-1.844,4.107-4.109,4.107H13.359z M11.297,22.738c1.589,0,3.06,0.93,3.745,2.368l0.027,0.057h10.819  c1.038,0,1.882-0.843,1.882-1.88V10.51c0-0.724-0.589-1.313-1.313-1.313H4.626c-0.724,0-1.313,0.589-1.313,1.313v13.342  c0,0.724,0.589,1.312,1.313,1.312h2.899l0.027-0.057C8.237,23.668,9.708,22.738,11.297,22.738z"/>
        <path d="M11.297,31.03c-2.286,0-4.145-1.86-4.145-4.146c0-2.285,1.859-4.146,4.145-4.146s4.145,1.86,4.145,4.146  C15.442,29.17,13.583,31.03,11.297,31.03z M11.297,24.964c-1.059,0-1.92,0.861-1.92,1.92s0.861,1.919,1.92,1.919  c1.058,0,1.919-0.86,1.919-1.919S12.355,24.964,11.297,24.964z"/>
        <path d="M30.704,31.03c-2.286,0-4.146-1.86-4.146-4.146c0-2.285,1.86-4.146,4.146-4.146c2.285,0,4.145,1.86,4.145,4.146  C34.849,29.17,32.989,31.03,30.704,31.03z M30.704,24.964c-1.059,0-1.92,0.861-1.92,1.92s0.861,1.919,1.92,1.919  c1.058,0,1.918-0.86,1.918-1.919S31.762,24.964,30.704,24.964z"/>
        <path d="M32.622,27.391v-2.427h-4.852v-9.603c0-1.951,1.588-3.539,3.539-3.539h5.539l4.078,6.893l-0.014,5.136  c0,1.951-1.587,3.539-3.538,3.539H32.622z M34.849,25.163h2.526c0.724,0,1.312-0.588,1.312-1.312v-4.515l-3.126-5.24l-4.251-0.049  c-0.724,0-1.312,0.589-1.312,1.313v7.377h4.851V25.163z"/>
    </symbol> 
    <!--新增外链--> 
    <symbol id="add-link" viewBox="0 0 1024 1024">
        <path d="M819.2 128H204.8C148.48 128 102.4 174.08 102.4 230.4v614.4c0 56.32 46.08 102.4 102.4 102.4h614.4c56.32 0 102.4-46.08 102.4-102.4V230.4c0-56.32-46.08-102.4-102.4-102.4z m51.2 716.8c0 28.16-23.04 51.2-51.2 51.2H204.8c-28.16 0-51.2-23.04-51.2-51.2V230.4c0-28.16 23.04-51.2 51.2-51.2h614.4c28.16 0 51.2 23.04 51.2 51.2v614.4z m-204.8-332.8h-128v-128c0-15.36-10.24-25.6-25.6-25.6s-25.6 10.24-25.6 25.6v128h-128c-15.36 0-25.6 10.24-25.6 25.6s10.24 25.6 25.6 25.6h128v128c0 15.36 10.24 25.6 25.6 25.6s25.6-10.24 25.6-25.6v-128h128c15.36 0 25.6-10.24 25.6-25.6 0-12.8-10.24-25.6-25.6-25.6z"/>
    </symbol> 
    <!--通知--> 
    <symbol id="icon-notice" viewBox="0 0 1024 495.484">
        <path d="M94.323,407.581l43.097-159.822H53.903l-13.484,50.612h35.032   L45.807,404.92c-18.871,10.661-18.871,13.322-5.387,5.322c-13.484,8-26.936,15.984-40.419,26.646l8.081,55.936   c16.177-15.984,35.032-31.968,53.887-45.274c16.177,23.968,48.516,37.29,94.323,37.29h113.193c-18.871,0,10.774,2.661,88.903,2.661   c8.097-13.322,18.871-29.306,32.354-47.951H169.774C129.355,439.549,105.097,428.888,94.323,407.581z"/>
        <path d="M175.161,183.823c-8.097-21.323-18.871-39.968-26.952-55.936   l-8.081-16l-51.193,26.645c13.468,23.968,24.242,47.936,32.322,74.581L175.161,183.823z"/>
        <path d="M121.258,423.565h48.517l16.161-58.598h51.193l-16.161,58.598   h48.516l10.774-61.259h53.887l-2.693,7.984c-2.694,10.645-10.774,18.645-21.548,18.645h-10.791   c-5.387-2.661-13.468-2.661-18.855-2.661v18.646v21.307h45.807c29.645,0,51.193-18.646,56.581-45.291l48.516-165.145h-83.548   l94.323-45.291l10.774-45.29h-253.29l-10.791,37.29h53.887l-26.936,23.968c8.081,5.355,16.161,10.661,21.548,16   c5.387,2.661,10.791,7.984,16.178,10.646h-75.452L121.258,423.565z M347.613,330.339h-53.887l8.081-23.983h53.903L347.613,330.339z    M371.871,250.403l-8.081,23.984h-53.887l8.064-23.984H371.871z M371.871,165.178l-67.355,31.951   c-5.403-2.661-13.484-7.983-24.258-15.983c-10.774-7.984-18.871-13.322-24.258-15.968H371.871z M218.274,250.403h51.209   l-8.097,23.984h-51.194L218.274,250.403z M202.097,306.355h51.21l-8.081,23.983h-51.209L202.097,306.355z"/>
        <path d="M571.29,343.646c2.693-2.661,5.388-7.983,5.388-10.646   c2.693-2.661,5.387-8,5.387-10.661h67.371l13.468-47.951h-61.984l18.871-66.597h51.193l13.484-47.952h-99.71   c5.388-13.322,13.468-26.629,24.258-42.629l-51.209-7.984c-21.549,42.63-48.5,82.598-80.839,117.21   c10.774,13.323,18.871,26.646,24.258,42.63c16.161-18.662,35.032-37.307,48.5-58.613h16.161l-16.161,63.936h-80.838l-12.718,45.29   h71.992c-24.242,50.613-61.968,93.226-110.484,125.193c5.387,10.662,10.774,21.307,13.484,31.968l5.387,18.646   c40.419-26.629,78.145-58.597,105.097-98.564c10.773,18.661,24.241,39.968,35.032,61.274l51.193-34.629L571.29,343.646z"/>
        <path d="M614.403,484.839h53.887l5.388-31.968h64.677l-8.08,31.968h53.887   l91.629-340.983H706.016L614.403,484.839z M811.113,194.468l-56.581,207.774h-61.983l56.58-207.774H811.113z"/>
        <polygon points="789.564,79.92 749.129,15.984 722.193,31.968    759.919,95.92  "/>
        <polygon points="851.532,0 819.193,2.661 819.193,74.597 851.532,74.597     "/>
        <polygon points="991.661,79.92 926.983,114.549 943.161,143.855    1007.839,106.564  "/>
        <polygon  points="948.549,170.5 948.549,202.468 1024,205.129    1024,173.161  "/>
        <polygon points="916.21,15.984 878.483,79.92 905.436,95.92    943.161,31.968  "/>
    </symbol>
    <!--喇叭--> 
    <symbol id="icon-horn" viewBox="-385.377 -415.75 1024 1024">
        <path d="M132.44,461.428v-51.782v-660.032v-18.877v-20.857c0-14.896-12.077-26.973-26.973-26.973   c-6.001,0-11.49,2.025-15.972,5.339l-0.035-0.046l-3.032,2.261c-0.006,0-0.012,0-0.023,0l-255.232,189.866h-147.509   c-38.129,0-69.042,30.914-69.042,69.042v92.056v115.07v92.056c0,38.129,30.914,69.042,69.042,69.042h144.874L79.599,506.668   c5.604,4.775,12.859,7.675,20.805,7.675c17.732,0,32.11-14.378,32.11-32.11c0-0.524-0.052-1.03-0.081-1.542v-19.263H132.44z"/>
        <path d="M326.702-108.199c-22.013-22.928-58.433-23.67-81.349-1.663c-22.922,22.001-23.67,58.427-1.663,81.349   c33.06,34.435,51.264,79.709,51.264,127.469c0,44.526-16.104,87.505-45.349,121.002c-20.891,23.94-18.423,60.291,5.512,81.182   c10.909,9.516,24.389,14.188,37.812,14.188c16.035,0,31.995-6.668,43.37-19.7c47.541-54.469,73.72-124.311,73.72-196.678   C410.024,21.347,380.434-52.223,326.702-108.199z"/>
        <path d="M508.559-237.636c-3.389-3.723-6.829-7.393-10.316-11.012c-22.088-22.853-58.502-23.48-81.361-1.415   c-22.859,22.076-23.486,58.496-1.415,81.355c2.704,2.79,5.357,5.627,7.951,8.481C487.99-89.178,523.547,2.867,523.547,98.951   c0,94.772-34.705,185.867-97.712,256.498c-3.418,3.826-6.904,7.583-10.466,11.277c-22.07,22.859-21.432,59.284,1.433,81.355   c11.162,10.782,25.563,16.144,39.952,16.144c15.063,0,30.108-5.88,41.397-17.577c4.586-4.747,9.142-9.654,13.544-14.585   c81.85-91.746,126.928-210.049,126.928-333.106C638.623-25.814,592.434-145.344,508.559-237.636z"/>
    </symbol>
    <!--音量--> 
    <symbol id="pic-horn" viewBox="0 0 1024 1024">
        <path d="M333.725,716.8l102.389,102.4c78.611-78.62,127.233-187.232,127.233-307.2s-48.622-228.58-127.233-307.2L333.725,307.2   c52.395,52.4,84.822,124.808,84.822,204.8C418.547,591.992,386.12,664.4,333.725,716.8z"/>
        <path d="M231.336,409.6L128.947,512l102.389,102.4c26.216-26.219,42.411-62.423,42.411-102.4S257.553,435.819,231.336,409.6z"/>
        <path d="M708.148,512c0,159.945-64.817,304.761-169.645,409.6L640.892,1024c131.006-131.02,212.056-312.04,212.056-512   S771.898,131.02,640.892,0L538.503,102.4C643.33,207.239,708.148,352.055,708.148,512z"/>
    </symbol>
    <!--qq表情笑脸--> 
    <symbol id="emjio" viewBox="-795.5 -93.5 1024 1024">
        <path d="M-283.5-93.5c-282.764,0-512,229.236-512,512s229.236,512,512,512s512-229.236,512-512S-0.736-93.5-283.5-93.5z   M-143.864,209.045c51.409,0,93.091,41.681,93.091,93.091s-41.681,93.091-93.091,93.091s-93.091-41.681-93.091-93.091  S-195.273,209.045-143.864,209.045z M-423.136,209.045c51.409,0,93.091,41.681,93.091,93.091s-41.681,93.091-93.091,93.091  s-93.091-41.681-93.091-93.091S-474.546,209.045-423.136,209.045z M-283.5,744.318c-136.192-0.07-252.439-98.42-275.084-232.727  H-8.416C-31.061,645.898-147.308,744.248-283.5,744.318z"/>
    </symbol>
    <!--图片--> 
    <symbol id="pic" viewBox="-281.5 416.5 1023.996 1024">
        <path d="M571.833,501.833h-682.667c-94.251,0-170.667,76.416-170.667,170.667v512c0,94.251,76.416,170.667,170.667,170.667h682.667  c94.251,0,170.667-76.416,170.667-170.667v-512C742.5,578.249,666.084,501.833,571.833,501.833z M-46.833,693.833  c47.125,0,85.333,38.208,85.333,85.333c0,47.125-38.208,85.333-85.333,85.333s-85.333-38.208-85.333-85.333  C-132.167,732.041-93.959,693.833-46.833,693.833z M593.167,1248.5h-704c0,0-79.189-208.128,170.667-256  c30.165,5.824,80.363,16.043,234.667,42.667c32.277-34.389,27.733-302.379,298.667-256V1248.5z"/>
    </symbol>
     <!--语音外框--> 
    <symbol id="kuang" viewBox="-222 416.5 1024 245.269">
        <path d="M-160.683,416.5h944.287c10.16,0,18.395,8.235,18.395,18.395v208.479c0,10.16-8.235,18.395-18.395,18.395  h-944.287c-10.16,0-18.395-8.235-18.395-18.395V434.895C-179.078,424.735-170.843,416.5-160.683,416.5z M-222,545.266l42.922-36.79  v73.581L-222,545.266z"/>
    </symbol>
    <!--购物车--> 
    <symbol id="cart" viewBox="0 0 1024 1024">
        <path d="M851.209481 1024M940.809481 172.790519l-742.4 0C185.609481 115.2 179.2 76.8 179.2 70.409481c0-32.009481-19.190519-51.2-38.4-64C121.609481 0 108.790519 0 102.4 0l0 0L32.009481 0C12.8 0 0 12.8 0 32.009481 0 51.2 12.8 64 32.009481 64L102.4 64l6.390519 0c0 0 6.409481 0 6.409481 12.8 6.409481 38.4 102.4 646.390519 108.790519 684.809481 0 6.390519 6.409481 19.209481 12.8 38.4 19.209481 19.190519 38.4 38.4 83.190519 38.4l595.209481 0c19.209481 0 32.009481-12.8 32.009481-31.990519s-12.8-32.009481-32.009481-32.009481L320 774.409481c-6.409481 0-19.190519 0-25.6-6.409481l-6.409481-6.390519 0-6.409481c0 0-6.390519-25.6-12.8-64l588.8 0c51.2 0 83.209481-25.6 96.009481-70.409481l0 0L1024 256l0-6.409481C1024 211.209481 985.6 172.790519 940.809481 172.790519L940.809481 172.790519 940.809481 172.790519zM902.409481 607.990519c-6.409481 12.8-12.8 25.6-32.009481 25.6L268.8 633.590519C256 518.390519 223.990519 358.4 204.8 236.809481l736.009481 0c6.409481 0 12.8 6.390519 19.190519 12.8L902.409481 607.990519 902.409481 607.990519 902.409481 607.990519zM902.409481 607.990519M855.22963 891.259259c-36.655407 0-66.37037 29.714963-66.37037 66.37037 0 36.655407 29.714963 66.37037 66.37037 66.37037 36.655407 0 66.37037-29.714963 66.37037-66.37037C921.6 920.974222 891.885037 891.259259 855.22963 891.259259zM324.039111 891.259259c-36.655407 0-66.37037 29.714963-66.37037 66.37037 0 36.655407 29.714963 66.37037 66.37037 66.37037 36.655407 0 66.37037-29.714963 66.37037-66.37037C390.409481 920.974222 360.694519 891.259259 324.039111 891.259259z" p-id="5964"/>
    </symbol> 
    <!--关闭-->
    <symbol id="close" viewBox="0 0 1024 1024"> 
        <path d="M992 1024c-9.6 0-16-3.2-22.4-9.6l-960-960C-3.2 41.6-3.2 22.4 9.6 9.6s32-12.8 44.8 0l960 960c12.8 12.8 12.8 32 0 44.8-6.4 6.4-12.8 9.6-22.4 9.6z" p-id="2137"/>
        <path d="M32 1024c-9.6 0-16-3.2-22.4-9.6-12.8-12.8-12.8-32 0-44.8l960-960c12.8-12.8 32-12.8 44.8 0s12.8 32 0 44.8l-960 960c-6.4 6.4-12.8 9.6-22.4 9.6z" p-id="2138"/>
    </symbol> 
    <!--营业执照-->  
    <symbol id="business-license" viewBox="0 0 1365 1024"> 
        <path d="M1152.00000031 992H192.00000031a160.00000031 160.00000031 0 0 1-160.00000031-160.00000031V192.00000031a160.00000031 160.00000031 0 0 1 160.00000031-160.00000031h960a160.00000031 160.00000031 0 0 1 159.99999938 160.00000031v639.99999938a160.00000031 160.00000031 0 0 1-159.99999938 160.00000031zM392 111.99999969a279.79999969 279.79999969 0 0 0-190.60000031 484.8L192.00000031 591.99999969v320.00000062l200.76-120L591.99999969 912.00000031v-320.00000062l-9.39999938 4.8A279.79999969 279.79999969 0 0 0 392 111.99999969z m700.00000031 160.00000031h-280.00000031a60 60 0 0 0 0 120h280.00000031a60 60 0 0 0 0-120z m19.99999969 280.00000031h-319.99999969a40.00000031 40.00000031 0 0 0 0 79.99999969h319.99999969a40.00000031 40.00000031 0 0 0 0-79.99999969z m0 120h-319.99999969a40.00000031 40.00000031 0 0 0 0 79.99999969h319.99999969a40.00000031 40.00000031 0 0 0 0-79.99999969zM392 591.99999969a199.99999969 199.99999969 0 1 1 199.99999969-199.99999969 199.99999969 199.99999969 0 0 1-199.99999969 199.99999969z m0-319.99999969a120 120 0 1 0 120 120 120 120 0 0 0-120-120z m0 160.00000031a40.00000031 40.00000031 0 1 1 40.00000031-40.00000031 40.00000031 40.00000031 0 0 1-40.00000031 40.00000031z m-120 212.79999938a286.60000031 286.60000031 0 0 1-70.60000031-48L272 632v12.79999969z m240 0V632l70.60000031-35.20000031A286.60000031 286.60000031 0 0 1 512 644.79999969zM392 711.99999969l-120 80.00000062v-147.20000062a278.32000031 278.32000031 0 0 0 240 0V792.00000031z" p-id="868"/>
    </symbol>    
    <!--电话-->  
    <symbol id="call-phone" viewBox="0 0 1024 1024"> 
        <path d="M993.540013 766.084882l-3.938871-5.732561c2.110146 1.984191-10.438161-12.618389-10.438161-12.618389s-11.779772-13.775748-42.675706-39.318494c-25.398503-20.996197-57.116186-45.144176-81.849512-61.45977-30.043484-19.819394-50.961764-32.584116-49.647784-31.731702l-22.065454-11.037381c-9.674743-4.786003-25.829333-5.307889-37.235582-1.379417-10.307173 3.549849-19.37814 11.622712-23.588198 18.97005 1.804165-3.320629-7.154234 6.52767-25.372919 39.003316-7.808154 14.175861-16.967129 34.189683-27.992693 53.848419-14.960341 26.675546-53.757554 53.070706-92.417638 31.18628-49.066522-27.77253-112.131436-66.098417-176.87669-127.601166C324.39247 547.011398 283.36845 492.403686 260.06679 440.458617c-8.482541-18.910699-4.627585-58.512648 26.371708-73.620741 30.620653-14.923898 48.238632-18.689664 67.581978-30.30112 17.512574-10.921747 14.050584-7.27673 34.477656-20.694321 0.824819-0.600681 7.362997-6.291287 8.274801-6.898107 0 0 1.522744-1.542122 2.757926-2.758834 12.828705-12.163017 16.071698-28.288277 9.653253-44.148499l-2.757926-8.277524c0 0-14.735204-33.45188-37.235582-71.741951-11.924064-20.290115-29.265739-45.538149-42.752457-63.463404-36.500817-48.518017-68.955312-63.463404-68.955312-63.463404s-9.095527-4.792143-13.791676-6.898107c-18.499083-7.798617-34.913603-5.51255-51.027259 1.379417-34.902346 12.894681-54.780903 30.523177-81.75741 52.699246C51.94418 150.741189 10.622364 218.079854 18.871582 276.866748c12.852242 91.943039 128.256349 294.433846 279.149181 437.648618 150.93786 143.236262 364.322531 252.835426 461.043352 264.931928 64.999045 8.280594 120.058299-24.922622 174.867856-75.433016 19.298318-17.785062 44.513641-46.931892 57.481522-74.673723C998.705879 813.742299 1005.825319 783.53737 993.540013 766.084882z" p-id="1839"/>
    </symbol> 

    <!--搜索-->
    <symbol id="search" viewBox="0 0 1024 1024">  
        <path d="M978.86259158 978.44028259c-23.55880881 23.55880881-64.94509011 20.36132644-92.42533958-7.0887581l-181.71352663-181.71352663a419.71480901 419.71480901 0 0 1-252.99325163 84.76344785c-233.23522375 0-422.30899284-189.07376907-422.30899283-422.27882791 0-233.23522375 189.07376907-422.30899284 422.30899283-422.30899284s422.30899284 189.07376907 422.30899283 422.30899284c0 94.62737933-31.52234981 181.6833617-84.0696545 252.0883038l181.80402142 181.83418634c27.41991961 27.45008453 30.61740197 68.86653076 7.08875809 92.39517465zM451.67014387 120.27824422c-183.25193796 0-331.81420866 148.5622707-331.81420865 331.81420865s148.5622707 331.78404373 331.81420865 331.78404373 331.81420866-148.53210577 331.81420866-331.78404373-148.5622707-331.81420866-331.81420866-331.81420865z" p-id="938"/>
    </symbol> 
    <!--二维码-->
    <symbol id="qr-code" viewBox="0 0 1024 1024">  
        <path d="M116.08531921 907.91468079h226.23696045v-226.23696045h-226.23696045v226.23696045z m-113.11848022 113.11848022h452.47392089V568.55924012H2.96683899v452.47392089z m84.83886018-367.63506072h282.79620054v282.79620054H87.80569917V653.39810029zM568.55924012 2.96683899v452.47392089h452.47392089V2.96683899H568.55924012z m367.63506071 367.63506072H653.39810029V87.80569917h282.79620054v282.79620054z m-28.27962004-254.5165805h-226.23696045v226.23696045h226.23696045v-226.23696045zM2.96683899 455.44075988h452.47392089V2.96683899H2.96683899v452.47392089z m565.59240113 254.5165805h113.11848022v113.11848024h-113.11848022v197.95734039h141.39810026v-113.11848022h84.83886019v-226.23696045h84.83886016v226.23696045h-84.83886016v113.11848022h226.23696044V568.55924012H568.55924012v141.39810026z" p-id="722"/>
    </symbol> 
    <!--笑脸-->
    <symbol id="smiling-face" viewBox="0 0 1024 1024">  
        <!-- <path d="M512 8.26926775C233.78156293 8.26926775 8.26926775 233.80807508 8.26926775 512s225.51229519 503.73073225 503.73073225 503.73073225c278.16541277 0 503.73073225-225.53880733 503.73073225-503.73073225S790.16541277 8.26926775 512 8.26926775zM246.87856197 405.9514248a79.53643141 79.53643141 0 1 1 159.07286283 0 79.53643141 79.53643141 0 0 1-159.07286283 0z m265.12143803 503.73073223a212.09715042 212.09715042 0 0 1-212.09715042-212.09715042h424.19430084a212.09715042 212.09715042 0 0 1-212.09715042 212.09715042z m185.58500661-424.19430084a79.53643141 79.53643141 0 1 1 0-159.0728628 79.53643141 79.53643141 0 0 1 0 159.0728628z" p-id="830"/> -->
        <path d="M243.075216 0m51.71073 0l0 0q51.71073 0 51.710731 51.71073l0 77.589285q0 51.71073-51.710731 51.71073l0 0q-51.71073 0-51.71073-51.71073l0-77.589285q0-51.71073 51.71073-51.71073Z" p-id="5871"/>
        <path d="M686.720819 0m51.71073 0l0 0q51.71073 0 51.710731 51.71073l0 77.589285q0 51.71073-51.710731 51.71073l0 0q-51.71073 0-51.71073-51.71073l0-77.589285q0-51.71073 51.71073-51.71073Z" p-id="5872"/>
        <path d="M1037.379862 293.916371v-99.827217a104.035961 104.035961 0 0 0-103.734508-103.734508H816.032428v43.501942a77.612473 77.612473 0 1 1-155.213352 0V90.354646H372.398419v43.501942a77.612473 77.612473 0 0 1-77.612473 77.612473 77.612473 77.612473 0 0 1-77.612473-77.612473V90.354646H103.746102C46.678789 90.354646 0 137.033436 0 194.089154v99.827217zM0 331.737089v588.516809a104.047555 104.047555 0 0 0 103.746102 103.746102h829.899252c57.055718 0 103.734508-46.678789 103.734508-103.746102V331.737089z m800.855444 224.651819L504.979631 852.253128a63.142744 63.142744 0 0 1-89.276373 0c-0.104349-0.092755-0.185509-0.197104-0.278265-0.289858l-0.301452-0.278265-177.393313-177.462878a63.142744 63.142744 0 0 1 0-89.276374 63.142744 63.142744 0 0 1 89.276373 0l120.268028 120.291218a18.469774 18.469774 0 0 0 26.122035 0l238.159219-238.159219a63.142744 63.142744 0 0 1 89.276373 89.276373z" p-id="5873"/>
    </symbol>
    <!--访问人--> 
    <symbol id="visitor" viewBox="0 0 1024 1024">  
        <path d="M967.2192 1024c-17.2032-97.28-82.5856-180.2752-176.6912-235.3152l25.3952-42.8032c109.7216 65.024 185.7024 164.3008 203.4176 278.1184h-52.1216z m-455.7824-307.2c-231.6288 0-424.2432 129.6896-455.7824 307.2H4.7104c25.344-161.6896 167.424-294.4 357.5296-340.5824C239.0016 626.688 152.9856 502.9376 152.9856 358.4a358.4 358.4 0 1 1 358.4512 358.4z m0-665.6a307.2512 307.2512 0 0 0 0 614.4 307.2 307.2 0 0 0 0-614.4z" p-id="1844"/>
    </symbol>      
    <!--电话--> 
    <symbol id="call" viewBox="0 0 1024 1024">  
        <path d="M989.49132875 883.97543844c-20.51220562 73.75767562-154.70420813 133.47311625-301.0214175 96.95372156A876.0820725 876.0820725 0 0 1 43.77319156 336.32829125C7.25379688 189.96315687 66.9692375 55.96285719 140.67898719 35.35479969c18.88273219-5.22390281 95.08461844-13.5629775 209.96255812 191.17567781 32.73326344 58.99655531 7.57226344 56.16893812-65.8499325 175.79152313-34.31481187 55.88138344 21.90205219 131.79571688 21.90205219 131.79571687a710.64250406 710.64250406 0 0 0 81.04238437 103.0402875 690.80125781 690.80125781 0 0 0 102.99236157 80.9465325s75.96225844 56.07308625 131.84364281 22.04582906c119.81428781-73.32634406 116.84289375-98.77489875 175.55189438-65.75408062 204.93035812 114.78208781 196.4954325 190.88812313 191.36738062 209.5791525z" p-id="1012"/>
    </symbol>  
    <!--链接-->   
    <symbol id="link" viewBox="0 0 1664 1024">  
       <path d="M593.33333333 872H533.33333333A360 360 0 0 1 533.33333333 151.94h60A60 60 0 1 0 593.33333333 32H533.33333333a480 480 0 1 0 0 960h60a60 60 0 1 0 0-120z m540.06-840h-60a60 60 0 1 0 0 119.94h60a360.06 360.06 0 0 1 0 720.06h-60a60 60 0 1 0 0 120h60a480 480 0 0 0 0-960zM533.33333333 512a60 60 0 0 0 60 60h480.06a60 60 0 0 0 0-120H593.33333333a60 60 0 0 0-60 60z" p-id="2386"/>
    </symbol>     
    <!--评论-->   
    <symbol id="comment" viewBox="0 0 1024 1024">  
        <path d="M819.2512 51.3536H204.8a204.8 204.8 0 0 0-204.8 204.8v307.2a204.8 204.8 0 0 0 204.8 204.8512h61.184l175.5648 175.5648a98.6624 98.6624 0 0 0 139.4176 0l175.5648-175.5648h62.7712a204.8 204.8 0 0 0 204.7488-204.8512v-307.2a204.8512 204.8512 0 0 0-204.8-204.8z m153.6 512.0512a153.6512 153.6512 0 0 1-153.6 153.6512H716.8v21.1456l-170.752 170.752a49.152 49.152 0 0 1-69.632 0L307.2 739.7376v-22.6816H204.8a153.6 153.6 0 0 1-153.6-153.6512v-307.2a153.6 153.6 0 0 1 153.6-153.6h614.4512c84.7872 0 153.6 68.8128 153.6 153.6v307.2zM256 358.6048a51.2 51.2 0 1 0 0 102.4 51.2 51.2 0 0 0 0-102.4z m256 0a51.2 51.2 0 1 0 0 102.4 51.2 51.2 0 0 0 0-102.4z m256.0512 0a51.2 51.2 0 1 0 0 102.4512 51.2 51.2 0 0 0 0-102.4512z" p-id="1209"/>
    </symbol> 
    <!--眼睛-->   
    <symbol id="eye" viewBox="0 0 1024 1024">  
        <path d="M510.369185 360.296296a151.703704 151.703704 0 1 0 0 303.407408 151.703704 151.703704 0 0 0 0-303.407408z m0 265.519408a113.777778 113.777778 0 1 1 0.113778-227.555556 113.777778 113.777778 0 0 1-0.113778 227.555556z m420.181334-250.007704C821.551407 272.384 674.436741 208.592593 512 208.592593S202.486519 272.384 93.449481 375.808c0 0-76.117333 31.516444-76.117333 136.192 0 104.713481 76.117333 136.229926 76.117333 136.229926C202.486519 751.616 349.563259 815.407407 512 815.407407s309.551407-63.791407 418.550519-167.177481c0 0 76.117333-31.516444 76.117333-136.229926 0-104.675556-76.117333-136.192-76.117333-136.192z m-57.53363 253.686519A522.998519 522.998519 0 0 1 512 773.688889a522.770963 522.770963 0 0 1-361.016889-144.232296s-65.611852-27.192889-65.611852-117.494519c0-90.263704 65.611852-117.456593 65.611852-117.456593A522.884741 522.884741 0 0 1 512 250.349037c140.060444 0 266.960593 55.030519 361.016889 144.232296 0 0 65.611852 27.192889 65.611852 117.456593s-65.611852 117.456593-65.611852 117.456593z" p-id="2170"/>
    </symbol> 
    <!--转发-->   
    <symbol id="transmit" viewBox="0 0 1024 1024">  
        <path d="M995.555556 483.555556a28.444444 28.444444 0 0 0-28.444445 28.444444v284.501333A170.666667 170.666667 0 0 1 796.444444 967.111111H227.612444A170.666667 170.666667 0 0 1 56.888889 796.501333v-568.888889A170.780444 170.780444 0 0 1 227.612444 56.888889H512a28.444444 28.444444 0 1 0 0-56.888889H227.612444A227.555556 227.555556 0 0 0 0 227.612444v568.888889A227.555556 227.555556 0 0 0 227.612444 1024H796.444444c125.724444 0 227.555556-101.831111 227.555556-227.498667V512a28.444444 28.444444 0 0 0-28.444444-28.444444z m-128.056889-255.943112H853.333333c-254.748444 0-470.300444 167.367111-542.776889 398.222223h60.529778c70.371556-198.769778 259.413333-341.333333 482.247111-341.333334h12.344889l-117.361778 118.670223a30.037333 30.037333 0 0 0 0 42.268444 29.240889 29.240889 0 0 0 41.813334 0l167.424-169.244444a30.151111 30.151111 0 0 0 0-42.268445l-167.424-169.244444a29.354667 29.354667 0 0 0-41.813334 0 30.094222 30.094222 0 0 0 0 42.325333l119.182223 120.604444z" p-id="2278"/>
    </symbol> 
    <!--帖子管理-->   
    <symbol id="post-admin" viewBox="0 0 4096 1024"> 
        <path d="M2058.66666665 32a480 480 0 1 0 0 960 480 480 0 0 0 0-960zM498.66666665 152a360 360 0 1 0 0 720 360 360 0 0 0 0-720z m3120 0a360 360 0 1 0 0 720 360 360 0 0 0 0-720z" p-id="896"/>   
    </symbol> 
    <!--关注-->   
    <symbol id="focus" viewBox="0 0 1024 1024"> 
        <path d="M717.94688 69.30432a277.79072 277.79072 0 0 0-126.1568 30.22848c-28.63104 14.49984-54.35392 35.06176-82.944 53.82144 0 0-1.8432-1.4336-3.60448-3.072-56.32-53.28896-127.83616-80.85504-200.17152-80.85504a292.61824 292.61824 0 0 0-286.80192 342.46656c11.8784 69.26336 45.42464 126.5664 93.96224 175.67744 91.66848 92.81536 250.18368 252.96896 337.46944 341.03296a87.57248 87.57248 0 0 0 124.55936 0.08192c89.62048-90.15296 254.52544-256.73728 349.67552-355.328 67.09248-69.55008 96.33792-155.48416 82.78016-253.09184-20.64384-149.21728-150.81472-250.96192-288.768-250.96192z" p-id="1874"/>
    </symbol>   
    <!--同城卡箭头--> 
    <symbol id="card-arrow" viewBox="0 0 1365 1024"> 
        <path d="M1316.821333 451.626667L894.506667 29.269333a85.333333 85.333333 0 1 0-120.661334 120.704l276.992 277.034667c-1.109333-0.042667-2.176-0.341333-3.328-0.341333h-938.666666a85.333333 85.333333 0 0 0 0 170.666666h938.666666c1.109333 0 2.218667-0.298667 3.328-0.341333l-276.992 277.034667a85.333333 85.333333 0 1 0 120.661334 120.661333l422.314666-422.357333a85.290667 85.290667 0 0 0 0-120.704z m-184.32 57.045333l3.328 3.328-3.328 3.328c0.042667-1.152 0.341333-2.176 0.341334-3.328s-0.298667-2.218667-0.341334-3.328z" p-id="1915"/>
    </symbol>   
    <!--代金券店--> 
    <symbol id="coupon-shop" viewBox="0 0 1024 1024">
        <path d="M989.84 379.82L916.7 181.46c-5.31-25.11-18.3-46.32-39-63.6C857.03 100.61 830.78 92 798.98 92H220.82c-26.49 0-49.53 8.61-69.15 25.86a114.54 114.54 0 0 0-37.41 63.6l-79.5 198.36a156.09 156.09 0 0 0 17.49 104.4c18.03 32.97 32.4 35.73 69.48 57.75v270a120 120 0 0 0 120 120h540a120 120 0 0 0 120-120v-60V542c38.13-20.94 53.61-23.49 70.59-56.97s22.83-68.58 17.52-105.21zM811.76 632a60 60 0 0 1-60 60h-480a60 60 0 0 1-60-60v-90c99.39 0 150-80.58 150-180a150 150 0 1 0 300 0c0 99.39 50.61 180 150 180v90z" p-id="999"/>
    </symbol>   
    <!--积分--> 
    <symbol id="index-integral" viewBox="0 0 1024 1024">
        <path d="M1003.37628033 835.368421c-15.629474 105.310316-212.291368 188.631579-483.516631 188.631579S51.97249133 940.678737 36.34301733 835.368421H34.80701733v-107.789474c0-16.060632 6.763789-31.555368 19.159579-46.214736C110.42133333 770.425263 287.97754433 835.368421 519.85964933 835.368421s409.438316-64.943158 465.893052-154.00421c12.395789 14.659368 19.159579 30.154105 19.159579 46.214736v107.789474h-1.536zM519.85964933 754.526316C248.63438633 754.526316 51.97249133 671.205053 36.34301733 565.894737H34.80701733v-107.789474c0-20.372211 10.994526-39.801263 30.612211-57.74821C131.79059633 481.333895 301.58596533 538.947368 519.85964933 538.947368s388.069053-57.613474 454.440421-138.590315c19.617684 17.946947 30.612211 37.376 30.61221 57.74821v107.789474h-1.536c-15.629474 105.310316-212.291368 188.631579-483.516631 188.631579z m0-269.473684c-267.883789 0-485.052632-96.525474-485.052632-215.578948V161.684211c0-89.276632 202.293895-161.684211 485.052632-161.684211s485.052632 72.407579 485.052631 161.684211v107.789473c0 119.053474-217.168842 215.578947-485.052631 215.578948z" p-id="1012"/>
    </symbol> 
    <!--圆箭头--> 
    <symbol id="circle-arrow" viewBox="0 0 1024 1024">
        <path d="M512 32C246.89 32 32 246.92 32 512.03 32 777.08 246.89 992 512 992s480-214.92 480-479.97C992 246.92 777.11 32 512 32z m219.39 522.42l-296.97 297a60.12 60.12 0 0 1-84.87 0 60.06 60.06 0 0 1 0-84.9L604.1 512l-254.55-254.52a60 60 0 0 1 84.87-84.87l296.97 296.97a59.94 59.94 0 0 1 0 84.84z" p-id="1041"/>
    </symbol>  
    <!--左箭头-->   
    <symbol id="left-arrow" viewBox="0 0 1024 1024">
        <path d="M226.72647679 512.51660234l70.640452 70.64045194 412.3737827 412.37378277 0.03753861-0.03753856a50.25700457 50.25700457 0 0 0 1.44612899 1.52120614c19.54687338 19.54687338 51.23658271 19.54687338 70.78345607 0 19.54687338-19.54687338 19.54687338-51.23658271 0-70.7834561-0.49693924-0.49693924-1.00817891-0.97421546-1.52120611-1.44612899l0.03753853-0.03753857L368.15217239 512.37538577l414.60464678-414.60464678c19.54687338-19.54687338 19.54687338-51.23658271 0-70.78345607s-51.23658271-19.54687338-70.78345607 1e-8L226.58526025 512.37538577l0.14121654 0.14121657z" p-id="1015"/>
    </symbol> 
    <!--导航-->   
    <symbol id="navigation" viewBox="0 0 1024 1024">
        <path d="M881.23076938 401.23076937c0-201.78461531-165.19384594-369.23076938-369.23076938-369.23076937C307.92615406 32 142.76923062 199.44615406 142.76923062 401.23076937c0 126.46153875 153.00923062 357.04615406 262.85538469 509.20615407A110.4 110.4 0 0 0 512 992a110.47384594 110.47384594 0 0 0 106.41230812-81.56307656C728.18461531 758.27692344 881.23076938 527.69230812 881.23076938 401.23076937zM508.82461531 242.57230813c81.63692344 0 147.80307656 65.42769187 147.80307656 146.14153781 0 80.75076937-66.16615406 146.14153875-147.80307656 146.14153875s-147.80307656-65.39076937-147.80307656-146.14153875c0-80.67692344 66.16615406-146.14153875 147.80307656-146.14153781z" fill="" p-id="2238"/>
    </symbol> 
    <!--感叹号-->  
    <symbol id="exclamatory-mark" viewBox="0 0 1024 1024">
        <path d="M512 0C229.1712 0 0 229.2224 0 512c0 282.8288 229.1712 512 512 512s512-229.1712 512-512c0-282.6752-229.2736-512-512-512z m0 968.2944A456.192 456.192 0 0 1 55.7056 512 456.192 456.192 0 0 1 512 55.7568a456.192 456.192 0 0 1 456.2944 456.2944c-0.1536 252.0064-204.3904 456.2432-456.2944 456.2432zM512 256a42.7008 42.7008 0 0 0-42.6496 42.6496v277.3504a42.7008 42.7008 0 0 0 85.2992 0V298.6496A42.8032 42.8032 0 0 0 512 256z m0 426.6496a42.7008 42.7008 0 1 0 0.1024 85.4016 42.7008 42.7008 0 0 0-0.1024-85.4016z" p-id="5546"/>
    </symbol> 
    <!--订阅-->     
    <symbol id="subscribe" viewBox="0 0 1024 1024">
        <path d="M881.777778 1024c-113.777778 0-312.888889-142.222222-312.888889-142.222222-33.166222-16.583111-80.611556-16.583111-113.777778 0 0 0-199.111111 142.222222-312.888889 142.222222s-113.777778-113.777778-113.777778-113.777778V113.777778a113.777778 113.777778 0 0 1 113.777778-113.777778h739.555556a113.777778 113.777778 0 0 1 113.777778 113.777778v782.990222S995.555556 1024 881.777778 1024z m-170.666667-625.777778h-142.222222V256a56.888889 56.888889 0 0 0-113.777778 0v142.222222H284.444444a56.888889 56.888889 0 0 0 0 113.777778h170.666667v142.222222a56.888889 56.888889 0 0 0 113.777778 0v-142.222222h142.222222a56.888889 56.888889 0 0 0 0-113.777778z" p-id="1244"/>
    </symbol>   
</svg>