<?xml version="1.0" encoding="utf-8"?>
<!-- Generator: Adobe Illustrator 21.0.0, SVG Export Plug-In . SVG Version: 6.00 Build 0)  -->
<svg version="1.1" id="图层_1" xmlns="http://www.w3.org/2000/svg" xmlns:xlink="http://www.w3.org/1999/xlink" x="0px" y="0px"
	 viewBox="0 0 771.3 768" style="enable-background:new 0 0 771.3 768;" xml:space="preserve">
<style type="text/css">
	.st0{fill:#17B5EE;}
	.st1{opacity:0.25;}
</style>
<g>
	<path class="st0" d="M219,0h-80.3C62.2,0.2,0.2,62.2,0,138.7V219c0.2,76.5,62.2,138.5,138.7,138.7h219v-219
		C357.5,62.2,295.5,0.2,219,0z M317.6,317.6L317.6,317.6H134.3c-51.9-0.2-93.9-42.2-94.1-94.1v-89.2c0.2-51.9,42.3-93.9,94.1-94.1
		h89.2c51.9,0.2,93.9,42.3,94.1,94.1V317.6z"/>
	<path class="st0" d="M730.7,40.6c-26-26-61.3-40.6-98.1-40.6h-79.9C476.2,0.2,414.2,62.2,414,138.7v219h218.6
		c36.8,0,72.1-14.6,98.1-40.6c26-26,40.6-61.3,40.6-98.1v-80.3C771.3,101.9,756.7,66.6,730.7,40.6z M729.1,222.7
		c-0.2,51.1-41.7,92.4-92.8,92.4h-180l0.4-180c0.2-50.9,41.5-92.2,92.4-92.4h87.2c51.1,0,92.6,41.3,92.8,92.4V222.7z"/>
	<path class="st0" d="M632.6,410.6H414v218.3c0,76.7,62,138.9,138.7,139.1h79.9v-0.4c36.8,0,72.1-14.6,98.1-40.6
		c26-26,40.6-61.3,40.6-98.1v-79.5c0-36.8-14.6-72.1-40.6-98.1C704.7,425.2,669.4,410.6,632.6,410.6z M731.2,633.2v0.4
		c-0.2,51.9-42.5,93.7-94.3,93.5h-89c-51.8-0.2-93.7-42.1-93.9-93.9V450.8l183.3,0.4c51.8,0.2,93.7,42.1,93.9,93.9L731.2,633.2
		L731.2,633.2z"/>
	<path class="st0" d="M0,549.4v79.5C0,705.6,62.1,767.8,138.7,768H219c76.7-0.2,138.7-62.4,138.7-139.1V410.6h-219
		C62.2,410.8,0.2,472.8,0,549.4z M314.8,632.4c-0.2,50.8-41.4,92-92.2,92.2h-87.4c-50.8-0.2-92-41.4-92.2-92.2v-87
		c0.2-50.8,41.4-92,92.2-92.2h179.6V632.4z"/>
</g>
<g class="st1">
	<path class="st0" d="M189.7,20.1c-129,6-175,36-171,127s13,181,120,191s197-6,197-6v-230C335.7,102.1,318.7,14.1,189.7,20.1z"/>
	<path class="st0" d="M632.6,338.1c107-10,116-100,120-191s-42-121-171-127s-146,82-146,82v230C435.6,332.1,525.6,348.1,632.6,338.1
		z"/>
	<path class="st0" d="M632.6,429.9c-107-10-197,6-197,6v230c0,0,17,88,146,82s175-36,171-127S739.6,439.9,632.6,429.9z"/>
	<path class="st0" d="M138.7,429.9c-107,10-116,100-120,191s42,121,171,127s146-82,146-82v-230C335.7,435.9,245.7,419.9,138.7,429.9
		z"/>
</g>
</svg>
