<svg xmlns="http://www.w3.org/2000/svg"><symbol id="icon-search" viewBox="0 0 1024 1024"><path d="M705.8 228C574 96.3 360.3 96.3 228.4 228c-131.8 132-131.8 345.6 0 477.4 61 61 145.5 99 238.7 99s178-38 239-99 99-145.5 99-238.7c0-93.2-38-177.6-99-238.6zM155 779C75 699 25.6 588.5 25.6 466.5 25.6 222.8 223.3 25 467 25c244 0 441.7 198 441.7 441.7 0 122-49.4 232.4-129.3 312.3-80 79.7-190.3 129-312.2 129-121.8.2-232.2-49.2-312-129zm824.7 200.3A60 60 0 0 1 937 997a60 60 0 0 1-42.6-17.7L809.2 894a60 60 0 0 1-17.6-42.6c0-33.2 27-60.2 60.2-60.2 16.6 0 31.7 6.7 42.6 17.6l85.3 85.2a60 60 0 0 1 17.7 42.7c0 16.6-6.8 31.7-17.7 42.6z"/></symbol><symbol id="icon-code" viewBox="0 0 1024 1024"><path d="M377 14.6H14.4V379h135V150.7H377v-136zM1009.4 379V14.7H647.2v136h227.2V379h135zm-995 92.7h995v86.5h-995v-86.5zm227.3 174.7H14.5V1011H377V646.4H241.7zm0 228.5h-92.2v-93h92.2v93zm632.6-229h135v365h-135V646zm-227 229h147.3v136H647.2V875z" fill="#fff"/></symbol><symbol id="icon-level" viewBox="0 0 1026 1024"><path d="M512 0C230.5 0 0 230.3 0 512s230.3 512 512 512 512-230.3 512-512S793.5 0 512 0z" fill="#FFF"/><path d="M512 64.5C266 64.5 64.5 266 64.5 512S266 959.5 512 959.5 959.5 758 959.5 512 758 64.5 512 64.5z" fill="#FABE00"/><path d="M636.5 82C597 70.6 555.2 64.5 512 64.5 265 64.5 64.5 265 64.5 512c0 12 .4 23.8 1.4 35.6C346 545 580 346.2 636 82z" fill="#FBCF00"/><path d="M802 377H592.4c-8.6 0-13 4.2-13 12.8V411c0 8.7 4.4 13 13 13h59.8L443 637.6v-342c0-8.5-4.3-12.7-13-12.7H272c-8.7 0-13 4-13 12v22c0 8 4.3 13 13 13h81v410c0 4 0 8 4.4 8l47 51c4.3 5 13 5 17.2 0l367.6-371h17c8.6 0 8.6-9 8.6-13v-26c0-9-4.4-13-13-13z" fill="#fff"/></symbol><symbol id="icon-reward" viewBox="0 0 1024 1024"><path d="M514.6 11C236.4 11 15.3 232.3 15.3 510.6s221 499.3 499.3 499.3S1014 789 1014 510 793 11 514.6 11zm207 492.4v57H557.3V639h164v57h-164v135.6h-85.8V696H315v-57h156.7v-78.4H315v-57h121L279.3 225h93L515 482l135.4-257h86L578.8 503.5h142.5z"/></symbol><symbol id="icon-comment" viewBox="0 0 1138 1024"><path d="M154.7 973.7l-2-194C84.5 700 46.7 601.5 46.7 501 47 247.8 278 42 562.3 42s515 205.8 515 459-231 459-515 459c-60 0-119-9-175.2-27.3l-232 41zM562 98.7C310 98.7 105 279 105 501c0 90.2 35 179 98.8 249.5l7 8 1.6 147.5 179-31.8 7.2 2.4c52.3 17.7 107.4 26.8 163.7 26.8 251.8 0 456.8-180.6 456.8-402.6C1019 279 814 98.6 562 98.6z" fill="#666"/><path d="M253.2 512.8a69.7 69.7 0 1 0 139.4 0 69.7 69.7 0 1 0-139.4 0zm239 0a69.7 69.7 0 1 0 139.4 0 69.7 69.7 0 1 0-139.3 0zm239 0a69.7 69.7 0 1 0 139.5 0 69.7 69.7 0 1 0-139.4 0z" fill="#666"/></symbol><symbol id="icon-repost" viewBox="0 0 1029 1024"><path d="M926.7 854.8c0 37.3-31.3 68.5-68.6 68.5l-687 1.2c-37 0-67-30-67-67.4l1-688c0-37 32-68 69-68h377V32H173C97.8 32 35 108.2 35 182.6V857c0 74.5 60.4 135 135 135h674.4c74.4 0 150.6-62.6 150.6-137V477.6h-68.5v377zM960.2 32H721c-19.5 0-34.3 15.7-34.4 34.3 0 18.5 15 34.4 34.3 34.4l150-1-517 493c-14 13-14 34.3 0 47.3s36 13 49 0l522-497.6 1 163.8c0 18.5 15 34.3 34 34.3s34-15.7 34-34.3V65.4C995 47 979 32 960 32z" fill="#666"/></symbol><symbol id="icon-more" viewBox="0 0 1024 1024"><path d="M195.3 586.2H86.5c-16.6 0-30-13.6-30-30V450.5c0-16.6 13.4-30 30-30h108.8c16.6 0 30 13.4 30 30V556c.3 16.6-13.2 30.2-30 30.2zm371 0h-109c-16.5 0-30-13.6-30-30V450.5c0-16.6 13.5-30 30-30h109c16.5 0 30 13.4 30 30V556c0 16.6-13.5 30.2-30 30.2zm370.6 0H828c-16.4 0-30-13.6-30-30V450.5c0-16.6 13.6-30 30-30h109c16.5 0 30 13.4 30 30V556c0 16.6-13.5 30.2-30 30.2z" fill="#666"/></symbol><symbol id="icon-voice" viewBox="0 0 1024 1024"><path d="M693.4 504c0 157-62.2 304.3-171 413.2-17 17-17 44.7 0 61.7s44.6 17 61.7 0c126-126 197-295 197-475 0-181-71-350-196-475-17-17-44-17-62 0-17 17-17 44 0 61 109 109 171 256 171 413zm-187 0c0 106.7-42.4 206.7-116.4 280.8-17 17-17 44.7 0 61.8 17 17 44.7 17 61.8 0C542 756.4 593.6 634.2 593.6 504s-51.7-252.4-142-342.7c-17-17-44.7-17-61.8 0-17 17-17 44.7 0 61.8 74.2 74 116.5 174 116.5 281zM316 504c0 55.6-22 107.7-60.6 146.2-17 17-17 44.8 0 61.8s44.7 17 61.8 0c54.8-54.8 86.2-129 86.2-208S372 350.6 317.2 296c-17-17.2-44.7-17.2-61.8 0-17 17-17 44.6 0 61.6C294 396.2 316 448.3 316 504z" fill="#fff"/></symbol><symbol id="icon-play" viewBox="0 0 1024 1024"><path d="M54.5 707.5c25 59.4 61 112.7 107 158.5s99 81.8 158.4 107c61 26 126 39 194 39s132-13 194-39c59-25.2 112-61 158-107s81-99 107-158.5c26-61.4 39-126.7 39-194s-13-132.5-39-194C948 260 912 206.8 866 161S767.5 79.2 708 54c-61.4-26-127-39-194-39-67.7 0-133 13-194.4 39C260.2 79.2 207 115 161 161S79.5 260 54.4 319.5c-26 61.3-39 126.6-39 194 0 67.3 13 132.6 39 194zm-9.4-194C45 255 256 44.7 514 44.7S983 255 983 513.5 772.7 982.3 514 982.3 45 772 45 513.5z" fill="#fff"/><path d="M386.7 713.2c3.6 2 7.5 2 11 0L729.4 523c3.5-2 5.5-5.5 5.5-9.5s-2-7.4-6-9.5L398 314c-3.6-2.2-7.6-2.2-11 0s-5.6 5.4-5.6 9.4v380.3c0 4 2 7.4 5.5 9.5z" fill="#fff"/></symbol><symbol id="icon-vote" viewBox="0 0 1024 1024"><path d="M987.6 949.8h-74.4v-658c0-10.4-9.2-18.8-20.4-18.8H657.5V73.6c0-10.5-9-19-20.3-19H381.5c-11.2 0-20.3 8.5-20.3 19v352.2H126c-11.2 0-20.3 8.4-20.3 19v505H32c-10.5 0-19 8.4-19 18.8s8.5 19 19 19h955.6c10.4 0 18.8-8.5 18.8-19s-8.5-18.8-18.8-18.8zM361.2 463.6v486.2h-215V463.6h215zM402 443V92.4h214.8v857.3h-215v-507zm470.4-132.2v638.8h-215V310.8h215z" fill="#666"/></symbol><symbol id="icon-register" viewBox="0 0 1285 1024"><path d="M33.5 258.2h675v75h-675v-75zm0 675h750.2v75H33.5v-75zm648.6-364L1213 39l53 53-530.5 530.4-53-53zm-648 139h375v75H34v-75zm0-225h525v75H34v-75zm468 267L664 588l53 53-163 162.4-53-53zm0 0" fill="#666"/></symbol><symbol id="icon-backTop" viewBox="0 0 1024 1024"><path d="M945.8 629.8l-414-414-1-.7c-5-4-11.3-7-18.4-7h-.5c-8 0-14 3-19 7l-1 1L78 630c-11 10.7-11.5 28.2-.6 39s28.4 11.3 39 .4l.6-.6 367-366v678.8c0 15 12.5 27.6 27.4 27.6h.8c15 0 27.5-12.5 27.5-27.5v-679L907 669l.6.5c10.8 10.8 28.3 10.2 39-.6s10.2-29-.6-40zM911.6 20c-3.2-2-7.4-3.3-13-3.3H125.8c-7.3 0-12.6 2-16 5-7 5-11.6 13.5-11.6 22.5 0 14.7 12 27 26.6 27.6h773.8c15 0 27.5-12.6 27.5-27.6 1-10.2-5-19.4-14-24z" fill=""/></symbol><symbol id="icon-refresh" viewBox="0 0 1024 1024"><path d="M520 997c-65.3 0-128.7-12.8-188.4-38-57.7-24.5-109.5-59.4-154-104-44.5-44.5-79.4-96.3-104-154-25.2-59.6-38-123-38-188.5 0-97.5 29-191.5 83.7-272l3-3c2-1.3 4.3-2.8 7-3.5 2.7-.8 5.6-1.2 8.5-1.2 12.2 0 23 7 26.4 17.3L221 414c1.8 5.6 1.3 11.7-1.3 17-3.2 6.2-9 11-16.3 13-2.8 1-5.8 1.3-8.7 1.3-12 0-22.8-7-26.4-17.3l-37-106.6-13.6 34.7c-20 51-30 104-30 158 0 238 194 432 432.3 432 81.5 0 161-23 230.5-67l1-1h.8c8.7-7 17.5-11 27-11 14.2 0 26 12 26 26 0 9-4.5 16-12.2 21l-2 2h-1l-3 3-3 2c-79 51-170 78-263 78zm382-206.4c-12 0-22.7-7-26.3-17.3L819 610c-2-5.5-1.5-11.6 1.3-17 3-6 9-10.8 16.4-13 2.8-.8 5.7-1.2 8.6-1.2 12.2 0 23 7 26.4 17.3l37 109 14-35c19.6-50 29.7-103 29.7-157 0-238-194-432-432.4-432-81 0-161 24-230 67l-1 1-1 1c-8.3 8-17.3 11-27 11-14 0-26-11-26-26 0-8 4.8-16 12-21l3-2h1l3-2 3.5-2c78.7-51 169.6-78 263-78 65.5-1 129 12 188.5 37 58 25 110 60 154 104 45 45 79.8 97 104 154 25 60 38 123 38 189 0 97-28.2 191-83 271l-2 2h-.3c-2.4 2-5 3-8 4s-6 1-9 1z" fill=""/></symbol><symbol id="icon-detailMore" viewBox="0 0 1037 1024"><path d="M326 566h-66c-10 0-18.2-8-18.2-18v-64c0-10 8.2-18.3 18.3-18.3h66c10 0 19 8.2 19 18.2v64c0 10-8 18-18 18zm225 0h-66c-10 0-18.3-8-18.3-18v-64c0-10 8.2-18.3 18.3-18.3h66c10 0 18.2 8.2 18.2 18.2v64c0 10-8 18-18.3 18zm225 0h-66c-10 0-18.3-8-18.3-18v-64c0-10 8.2-18.3 18.2-18.3h66c10 0 18 8.2 18 18.2v64c0 10-8 18-19 18z" fill="#666"/><path d="M516 46c62 0 122.3 12 179 36 54.8 23.3 104 56.5 146.3 98.7C883.6 223 916.8 272.2 940 327c23.8 56.6 36 117 36 179s-12 122.4-36 179.2c-23.3 54.8-56.5 104-98.7 146.2C799 873.7 749.7 907 695 930c-56.6 24-117 36.2-179 36.2S393.4 954 336.7 930c-54.8-23.2-104-56.4-146.2-98.6C148.3 789 115 740 92 685.2c-24-56.7-36.2-117-36.2-179.2s12-122.3 36.2-179c23.2-55 56.3-104 98.6-146.3C233 138.4 282 105.2 336.8 82c56.7-24 117-36 179-36m0-48.5C235-2.5 7.4 225 7.4 506S235 1014.6 516 1014.6 1024.4 787 1024.4 506 796.7-2.5 516-2.5z" fill="#666"/></symbol><symbol id="icon-redPocket" viewBox="0 0 1024 1024"><path d="M662.3 28.4c-31.7-23-66.3-36-102.5-36-154 0-339.2 150.6-333 503.6-.3 386.5 179 522.8 333 522.8 36.2 0 70.8-12.8 102.5-36V28.5z" fill="#DB1818"/><path d="M662.3 276.8c-39-23-84.7-36-133.2-36-146 0-264 118.6-264 264.8 0 146.3 119 265 265 265 49 0 94-13.2 134-36v-458z" fill="#FFBB5A"/><path d="M662.3 328.5C624.5 300 578 284 529 284c-122.4 0-221.6 99.2-221.6 221.6S406.6 727.3 529 727.3c49 0 95.5-16 133.3-44.6V328.5z" fill="#FFF48D"/><path d="M558.3 417.6v66.2h-46v-66.2c0-12-10-22-22-22s-22 10-22 22v38l-41.4-24c-11-5.7-24-2-30 8.3-6 10-3 23 7 29l62 36-62 37c-7 3-11 11-11 19 0 7 4 15 11 18 6 4 15 4 22 0l41-24v38c0 12 10 22 22 22s22-10 22-22v-66h46v66c0 12 10 21 22 21s22-9 22-22v-66h40c12 0 22-10 22-22s-10-22-22-22h-40v-67c0-8-5-15-11-19-7-4-15-4-22 0s-11 11-11 19z" fill="#FFBB5A"/><path d="M662.3 47c-17.3-5.3-35.7-8-54.7-8-103 0-186.3 83.3-186.3 186 0 103 83.4 186.3 186.3 186.3 19 0 37.4-2.8 54.7-8V47z" fill="#F4AD51"/><path d="M662.3 79c-17.2-6.3-35.7-9.8-54.7-9.8-55.8 0-107.2 29.7-135 78-28 48.2-28 107.7 0 156 27.8 48 79.3 77.8 135 77.8 19 0 37.5-3.4 54.8-10V79z" fill="#F4E476"/><path d="M662.3 209.7H659v-46.5c0-5.5-3-10.6-7.8-13.4-4.7-2.7-10.6-2.7-15.4 0-4.8 2.8-7.7 8-7.7 13.4v46.5h-32v-46.5c0-8.5-7-15.4-15-15.4s-15 7-15 15.4V190l-30-17c-7-4-16-1.5-20 5.8-4 7.2-2 16.5 5 21l44 25.4-44 25.4c-7 4.4-9 13.6-5 21 4 7 13 9.7 21 5.7l30-16.8V287c0 8.6 7 15.5 16 15.5s16-7 16-15.4v-46h32v46c0 9 7 16 16 16s16-7 16-15v-46h4v-31zm0 398.4c-17.3-5-35.7-8-54.7-8-103 0-186.3 84-186.3 187s83.4 186 186.3 186c19 0 37.4-3 54.7-8V609z" fill="#F4AD51"/><path d="M662.3 640.2c-17.2-6.5-35.7-10-54.7-10-86 0-156 70-156 156s70 156 156 156c19 0 37.5-3.5 54.7-10v-292z" fill="#F4E476"/><path d="M662.3 770.8H659v-46.6c0-5.5-3-10.6-7.8-13.3-4.7-3-10.6-3-15.4 0-4.8 2-7.7 7-7.7 13v46h-32v-46c0-9-7-16-15-16s-15 7-15 15v27l-30-17c-7-4-16-2-20 6-4 7-2 16 5 21l44 25-44 25c-7 4-9 13-5 21 4 7 13 10 21 5l30-17v27c0 8 7 15 16 15s16-7 16-16v-46h32v46c0 9 7 16 16 16s16-7 16-15v-46h4v-31z" fill="#F4AD51"/><path d="M662.3-7.5H544c70.7 116.7 116.8 298 118.3 502.5V-7.5zm0 523.8c-1.5 204.5-47.6 385.8-118.5 502.5h118.5V516.3z" fill="#FF4545"/></symbol><symbol id="icon-like-rank" viewBox="0 0 1027 1024"><path d="M4 512a512 512 0 1 0 1024 0A512 512 0 1 0 4 512z" fill="#159bff"/><path d="M340.5 731.6v.5z"/><path d="M792.3 435.3c-14.4-13.3-33.6-13-38-12.8H620.7c11.3-46.4 16-86.7 14.2-120-2-31-10-56.3-22-75.2-21-29.8-47-33.6-50-34h-1c-20 0-34 6-42 18-7 10-8 21-8 27.8v3c-1 2-1 3-1 5 0 51-29 97-53 126-27 33-55 53-55 54-4 3-6 7-6 12v302c0 18 10 34 30 44 15 8 31 11 41 11h229c15 0 28-11 40-36 7-15 12-29 12-30 56-192 57-251 57-253 0-20-8-32-15-38zm-437-2.7c-10-9.5-22.6-10-25-10H248c-22.6 0-31.2 19.4-31.4 32.4v1l17 304.5c.2 17.6 10.2 25.6 16 29 7.3 4 14.4 4 15.7 4H337c10.7 0 17.3-4.3 21-8 7.3-7.3 7.7-16.6 7.7-18.8v-307c0-14-5.5-22.4-10.2-27z" fill="#fff"/></symbol><symbol id="icon-listCondition" viewBox="0 0 1024 1024"><path d="M44.5 0h935v1024L512 777 44.5 1024V0z"/></symbol><symbol id="icon-action" viewBox="0 0 1024 1024"><path d="M512 54.2c-252 0-457.2 205.3-457.2 457.4S260 969 512 969s457.7-205 457.7-457.3S764.3 54.2 512 54.2z" fill="#fff"/><path d="M512 1022.2c-68.7 0-135.7-13.6-198.5-40.2-60.8-25.8-115.4-62.5-162.3-109.3-47-47-83.7-101.4-109.3-162.3-27-63-41-129.7-41-198.6S15 376 41 313.2c26-61 63-115.6 109.8-162.5S252.8 67 313.6 41.4c63-26.6 129.8-40 198.6-40s136 13.4 199 40c60.6 25.8 115 62.6 162 109.3 47 47 83.7 101.5 109.4 162.3 26.6 63 40 129.8 40 198.6 0 69-13.4 135.8-40 198.7-26 60.7-62.8 115.4-109.6 162.3-47 47-101.4 83.6-162.2 109.3-63 26-129.8 40-198.7 40zm0-968c-252 0-457.2 205.3-457.2 457.4S260 969 512 969s457.7-205 457.7-457.3S764.3 54.2 512 54.2z" fill="#666"/><path d="M323.2 842l51.4-409L703 182.6 649.2 591l-326 251zm101.3-380.2L391.8 722l207.8-159.8 34-260.2-209 159.8z" fill="#666"/><path d="M470.2 511.6c0 15 8 29 21 36.4 13 7.5 29 7.5 42 0s21-21.4 21-36.4c0-23.2-18.8-42-42-42s-42 19-42 42" fill="#666"/></symbol><symbol id="icon-mineActive" viewBox="0 0 1024 1024"><path d="M511.8 51.5c-60.8 0-118 23.7-161 66.6-43 43-66.6 101-66.6 161s23.7 118 66.6 161c43 43 100 67 161 67 60.8 0 118-23 161-66s66.6-100 66.6-161-23.7-118-66.6-161c-43-43-100.2-66-161-66z" fill="#C4E6FF"/><path d="M305.2 579c68 42 140 64 209.4 64 69 0 140.5-21.8 208.4-63.4 56.4 36 104 86.6 137.6 146.5 32 57 50.4 121 53.5 186-4 3-11 6-20 9-21 9-49 17-80 24-57 13-155 27-302 27s-245-14-302-27c-31-6-58-15-80-23-9-3-15-6-20-9 3-67 23-134 58-192s82-106 138-140m2-59l-8 5C154 603 58 760 58 932c0 25 139.5 91 453.6 91 314 0 453.6-65 453.6-90 0-165-87.5-317-221.8-399-8.6-5.8-15.5-9.8-22-13-58.7 41-130 72.2-207 72.2-77.2 0-148.6-32-207.4-73z" fill="#159BFF"/><path d="M511.8 51.5c60.8 0 118 23.7 161 66.6 43 43 66.6 101 66.6 161s-23.7 118-66.6 161-100 67-161 67-118-23-161-66-66.6-100-66.6-161 23.7-118 66.6-161c43-43 100.2-66 161-66m0-51c-154 0-278.6 124-278.6 278S358 558 511.8 558s278.6-125 278.6-279S665.7.6 511.8.6z" fill="#159BFF"/><path d="M370.5 367c-9.3 0-18-5.2-22.6-14-41-78-10-174.2 68-214.4 12-6.5 28-1.5 34 11 6 12.4 1 27.8-11 34.2-26 13.2-45 35.7-53 63.2-9 27.6-7 57 7 82.7 6 12.4 1 28-11 34.2-4 2-8 3-12 3zM468 138.8a25 25 0 1 0 50 0 25 25 0 1 0-50 0z" fill="#159BFF"/><path d="M723 579.7c-68 41.7-139.5 63.6-208.5 63.6-69.4 0-141.3-22-209.4-64.2-55 35-102 83-137 140-35 59-55 125-58 193 5 3 12 6 21 9 22 9 49 17 80 24 57 13 156 28 302 28 147 0 245-15 302-27 31-6 59-14 80-23 9-3 16-6 20-9-3-65-21-128-53-185-33-60-81-110-137-146z" fill="#C4E6FF"/></symbol><symbol id="icon-location" viewBox="0 0 1024 1024"><path d="M512 9.7C271.5 9.7 80 211.7 76.5 452c-3 220.3 331 562.4 435.5 562.3 104.5 0 435.5-328.6 435.5-569.2S752.5 10 512 10zm0 616.7c-104 0-188-84.2-188-188S408 250 512 250s188 84.2 188 188-84 188.2-188 188.2z" fill="#ffa205"/></symbol><symbol id="icon-add" viewBox="0 0 1024 1024"><path d="M1024 486.4v51.2H0v-51.2z" fill="#fff"/><path d="M486.4 0h51.2v1024h-51.2z" fill="#fff"/></symbol><symbol id="icon-like" viewBox="0 0 1024 1024"><path d="M816 994.2H441c-16.3 0-43-5.3-65.3-17.2-30.3-16-47-40.3-47-68.7V413c0-6 3-12 8-15.6.3-.3 45.5-34 89.8-87.7 40-48.6 87.8-124 87.8-208 0-2.5.4-5 1.3-7 0-1.3.3-3.4.4-5 .7-10.4 1.8-28 12.5-43.4 12.8-18.7 34.8-28 65.4-28h2c2 .2 45 5.7 78 54 21 30.4 33 71.3 36 121.2 3 55.4-5 122.6-25 200h224c6-.4 37-1 59 20 15 14 23 34.2 23 59.5 0 4-1 100.2-94 414.7v.3c-1 1-8 25-20 49.3-20 38.3-40 57-63 57zM367.5 422.6v485.7c0 32.6 53.2 47 73.3 47h375c2.5 0 13.2-6.6 27.8-35.5 10.3-20.7 17-41.5 17.5-43.3C951 570 953 473.8 953 473c0-14-3.5-24.5-10.6-31-11.8-11-30.7-9.8-31-9.8H660.6c-6 0-11.8-2.7-15.5-7.5s-5-11-3-17c50-184.3 28-271.7 1-312.4-20-31-45-37.3-50-38.3-35 .5-36 16.7-37 35.3 0 4.6-1 8.7-2 12.7 0 41.5-11 84.3-31 127-16 34.8-38 69.4-66 103.3-37 44-73 74.8-88 87.3zM516.8 92zM225.2 994h-117c-19.4 0-48-13.5-48.4-50.6l-28-499v-1.2c.4-20 13.3-49.5 48-49.5h135c3.4 0 23 .6 38 15.5 7.3 7.2 16 20.2 16 42v502.5c0 3-.6 17-11.7 28.3-5 5.3-15 12-31 12zM70.8 443.3l27.8 498.4v1c0 8.4 3 10 4.4 10.8 2.3 1.3 5 1.6 5 1.6h141.2-19.4V451c0-6.6-1.4-11.4-4.3-14.3-4-4-10.4-4.2-10.4-4.2H80c-4.4 0-5.8 1.3-7 4-1.4 2.8-1.8 6-2 6.8z" fill="#666"/></symbol><symbol id="icon-liked" viewBox="0 0 1024 1024"><path d="M967.6 440c-12.5-11.3-32.7-10-33-10H668c-6.5 0-12.5-3-16.5-8s-5.3-11.5-3.6-17.5c53-192.2 30-283.3 1-325.8-22-32.3-48-39-54-40-38 .5-39 17.4-40 36.8 0 4.8-1 9-2 13.2-1 43.3-12 88-33 132.6-17 36-41 72.2-71 107.5-39 46-78 78-94 91v506.4c0 34 56 49 78 49h399c2 0 14-6.8 29-37 11-21.6 18-43.2 18-45C977 573.4 979 473 979 472c0-14.5-3.8-25.2-11.4-32zm-737.2 11c0-6.6-1.4-11.4-4.3-14.3-3-4-10-4.2-10-4.2H79c-4.5 0-5.8 1.3-7.2 4-1.3 2.8-1.8 6-2 6.8L98 942v1c0 8.4 3 10 4.4 11 2.3 1 5 1.4 5 1.4h118c3 0 4.2-.5 4.4-.6l.4-.7H250h-19.6V451z" fill="#159bff"/><path d="M816 994.2H441c-16.3 0-43-5.3-65.3-17.2-30.3-16-47-40.3-47-68.7V413c0-6 3-12 8-15.6.3-.3 45.5-34 89.8-87.7 40-48.6 87.8-124 87.8-208 0-2.5.4-5 1.3-7 0-1.3.3-3.4.4-5 .7-10.4 1.8-28 12.5-43.4 12.8-18.7 34.8-28 65.4-28h2c2 .2 45 5.7 78 54 21 30.4 33 71.3 36 121.2 3 55.4-5 122.6-25 200h224c6-.4 37-1 59 20 15 14 23 34.2 23 59.5 0 4-1 100.2-94 414.7v.3c-1 1-8 25-20 49.3-20 38.3-40 57-63 57zM367.5 422.6v485.7c0 32.6 53.2 47 73.3 47h375c2.5 0 13.2-6.6 27.8-35.5 10.3-20.7 17-41.5 17.5-43.3C951 570 953 473.8 953 473c0-14-3.5-24.5-10.6-31-11.8-11-30.7-9.8-31-9.8H660.6c-6 0-11.8-2.7-15.5-7.5s-5-11-3-17c50-184.3 28-271.7 1-312.4-20-31-45-37.3-50-38.3-35 .5-36 16.7-37 35.3 0 4.6-1 8.7-2 12.7 0 41.5-11 84.3-31 127-16 34.8-38 69.4-66 103.3-37 44-73 74.8-88 87.3zM516.8 92zM225.2 994h-117c-19.4 0-48-13.5-48.4-50.6l-28-499v-1.2c.4-20 13.3-49.5 48-49.5h135c3.4 0 23 .6 38 15.5 7.3 7.2 16 20.2 16 42v502.5c0 3-.6 17-11.7 28.3-5 5.3-15 12-31 12zM70.8 443.3l27.8 498.4v1c0 8.4 3 10 4.4 10.8 2.3 1.3 5 1.6 5 1.6h141.2-19.4V451c0-6.6-1.4-11.4-4.3-14.3-4-4-10.4-4.2-10.4-4.2H80c-4.4 0-5.8 1.3-7 4-1.4 2.8-1.8 6-2 6.8z" fill="#159bff"/></symbol><symbol id="icon-praised" viewBox="0 0 1024 1024"><path d="M967.6 440c-12.5-11.3-32.7-10-33-10H668c-6.5 0-12.5-3-16.5-8s-5.3-11.5-3.6-17.5c53-192.2 30-283.3 1-325.8-22-32.3-48-39-54-40-38 .5-39 17.4-40 36.8 0 4.8-1 9-2 13.2-1 43.3-12 88-33 132.6-17 36-41 72.2-71 107.5-39 46-78 78-94 91v506.4c0 34 56 49 78 49h399c2 0 14-6.8 29-37 11-21.6 18-43.2 18-45C977 573.4 979 473 979 472c0-14.5-3.8-25.2-11.4-32zm-737.2 11c0-6.6-1.4-11.4-4.3-14.3-3-4-10-4.2-10-4.2H79c-4.5 0-5.8 1.3-7.2 4-1.3 2.8-1.8 6-2 6.8L98 942v1c0 8.4 3 10 4.4 11 2.3 1 5 1.4 5 1.4h118c3 0 4.2-.5 4.4-.6l.4-.7H250h-19.6V451z" fill="#159bff"/><path d="M816 994.2H441c-16.3 0-43-5.3-65.3-17.2-30.3-16-47-40.3-47-68.7V413c0-6 3-12 8-15.6.3-.3 45.5-34 89.8-87.7 40-48.6 87.8-124 87.8-208 0-2.5.4-5 1.3-7 0-1.3.3-3.4.4-5 .7-10.4 1.8-28 12.5-43.4 12.8-18.7 34.8-28 65.4-28h2c2 .2 45 5.7 78 54 21 30.4 33 71.3 36 121.2 3 55.4-5 122.6-25 200h224c6-.4 37-1 59 20 15 14 23 34.2 23 59.5 0 4-1 100.2-94 414.7v.3c-1 1-8 25-20 49.3-20 38.3-40 57-63 57zM367.5 422.6v485.7c0 32.6 53.2 47 73.3 47h375c2.5 0 13.2-6.6 27.8-35.5 10.3-20.7 17-41.5 17.5-43.3C951 570 953 473.8 953 473c0-14-3.5-24.5-10.6-31-11.8-11-30.7-9.8-31-9.8H660.6c-6 0-11.8-2.7-15.5-7.5s-5-11-3-17c50-184.3 28-271.7 1-312.4-20-31-45-37.3-50-38.3-35 .5-36 16.7-37 35.3 0 4.6-1 8.7-2 12.7 0 41.5-11 84.3-31 127-16 34.8-38 69.4-66 103.3-37 44-73 74.8-88 87.3zM516.8 92zM225.2 994h-117c-19.4 0-48-13.5-48.4-50.6l-28-499v-1.2c.4-20 13.3-49.5 48-49.5h135c3.4 0 23 .6 38 15.5 7.3 7.2 16 20.2 16 42v502.5c0 3-.6 17-11.7 28.3-5 5.3-15 12-31 12zM70.8 443.3l27.8 498.4v1c0 8.4 3 10 4.4 10.8 2.3 1.3 5 1.6 5 1.6h141.2-19.4V451c0-6.6-1.4-11.4-4.3-14.3-4-4-10.4-4.2-10.4-4.2H80c-4.4 0-5.8 1.3-7 4-1.4 2.8-1.8 6-2 6.8z" fill="#fff"/></symbol><symbol id="icon-homeActive" viewBox="0 0 1024 1024"><path d="M773 1024H589V827.6c0-14.4-11.6-26-26-26h-93c-14.4 0-26 11.7-26 26V1024H245c-54.6 0-99.3-44.6-99.3-99.4V600L33.2 565l-9-9c-26.6-26.7-26.6-69.7 0-96.3L464 20c13-12.7 30-20 48-20 18.3 0 35.3 7 48 20l440 440c12.8 12.7 20 30 19.8 48 0 18.2-7.2 35.2-20 48l-9 9-118.4 35.2v324.4c.2 54.8-44.2 99.4-99 99.4z" fill="#C4E6FF"/><path d="M512 47.5c5.7 0 10.4 2 14.2 6h.2l439.8 440c4 4 6 8.8 6 14v.4c0 5-2.2 10-6.2 14h-.5l-107 32-34 10v361c0 13-5.2 26-15 36-9.7 9-22.6 15-36.5 15H636.6V827c0-40.4-33-73.4-73.5-73.4h-93c-40 0-73 33-73 73.6v149H245c-28.7 0-52-23.4-52-52V565l-33.3-10.4-101-31.5H58c-8-8-8-21 0-29L497 54c4-4 9-6 14.3-6m.7-48c-18.2 0-35.2 7.3-48 20L24.4 459.8c-26.7 26.6-26.7 69.6 0 96.3l9 9 112.3 35v325c0 55 44.6 100 99.4 100h199V828c0-14.3 12-26 26-26h93c15 0 26 11.6 26 26v196h184c55 0 100-44.6 99-99.4V600.2L991 565l9-9c12.8-12.8 20-29.8 20-48 .3-18-7-35.3-19.7-48L560 20C547.4 7 530.4 0 512 0z" fill="#159BFF"/><path d="M802.5 498.6c-5.5 0-11-2.2-15-6.3L565 269.7c-8.3-8.2-8.3-21.7 0-30 8.2-8.2 21.7-8.2 30 0l222.5 222.6c8.3 8.2 8.3 21.8 0 30-4 4.3-9.6 6.3-15 6.3zM487.2 181.8a21 21 0 1 0 42 0 21 21 0 1 0-42 0z" fill="#159BFF"/></symbol><symbol id="icon-recommand" viewBox="0 0 1024 1024"><path d="M512.5 26c-26.7 0-51.2 15.6-62.6 40L341 298.5 92 336.7c-25.6 4-47 22-55 46.8-8.3 24.7-2 52 16 70.6l183 189-42 261c-4.3 27 6.8 53 28.5 68 11.5 8 25.5 13 39.5 13 11.5 0 23-2 33.4-8l217.2-121L730 976c10.2 5.8 22 8.7 33.3 8.7 14 0 27.8-4.3 39.8-12.7 22-15.4 33-41.8 29-68l-43-261.4L972 454c18-18.5 24.3-45.8 16-70.5-8.2-24.8-29.5-42.8-55-46.8l-249.2-38.2L575 66.2c-11.3-24.6-35.6-40-62.5-40z" fill="#fff"/><path d="M512 49.8c25.8 0 49.4 15 60.3 38.6l104.5 224 240.4 37c24.7 3.8 45 21.2 53 45s2 50-15.3 68.2L778 644.3l41 252c4 25.3-6.7 50.8-27.4 65.6-11.5 8-25 12-38.5 12-11 0-22-3-32-9L512 849 302.4 966c-10 5.4-21 8.2-32.3 8.2-13 0-27-4-38-12.3-21-15-31-41-27-66l41-252L69 462c-17.3-18-23.4-44.4-15.5-68.2 8-23.7 28.5-41.2 53.2-45L347 312 452 88c11-23.6 35-38.6 60.7-38.6M512 0c-22.2 0-43.8 6.4-62.6 18.4s-33.5 29-43 49l-93 200-214 32.8C78 303.5 58 312.5 41.7 326.4c-16.2 13.7-28.5 31.8-35.3 52-6.8 20.4-7.8 42.2-3 63s15 40 30 55.5L192 660l-37 228c-3.3 21.5-.7 43.6 7.8 64s22 37.3 40 50c19.6 14 42.8 21.6 67.2 21.6 19.7 0 39-5 56.2-14.5h.2L512 906l185.4 103c17 9.7 36.6 14.8 56.4 14.8 24 0 47.2-7.4 67-21.4l.2-.2c17.8-12.7 31.7-30 40-50.3 8.4-20 11-42 7.5-64l-37-228 158.8-164c15-16 25.3-35 30-56 4.8-21 3.8-43-3-63s-19-38-35.3-52c-16.4-14-36.2-23-57.3-26l-214.3-33L617 67c-9.3-20-24-37-42.8-49-18.5-11.6-40-18-62.2-18z" fill="#666"/></symbol><symbol id="icon-home" viewBox="0 0 1024 1024"><path d="M773 1024H589V827.6c0-14.4-11.6-26-26-26h-93c-14.4 0-26 11.7-26 26V1024H245c-54.6 0-99.3-44.6-99.3-99.4V600L33.2 565l-9-9c-26.6-26.7-26.6-69.7 0-96.3L464 20c13-12.7 30-20 48-20 18.3 0 35.3 7 48 20l440 440c12.8 12.7 20 30 19.8 48 0 18.2-7.2 35.2-20 48l-9 9-118.4 35.2v324.4c.2 54.8-44.2 99.4-99 99.4z" fill="#fff"/><path d="M512 47.5c5.7 0 10.4 2 14.2 6h.2l439.8 440c4 4 6 8.8 6 14v.4c0 5-2.2 10-6.2 14h-.5l-107 32-34 10v361c0 13-5.2 26-15 36-9.7 9-22.6 15-36.5 15H636.6V827c0-40.4-33-73.4-73.5-73.4h-93c-40 0-73 33-73 73.6v149H245c-28.7 0-52-23.4-52-52V565l-33.3-10.4-101-31.5H58c-8-8-8-21 0-29L497 54c4-4 9-6 14.3-6m.7-48c-18.2 0-35.2 7.3-48 20L24.4 459.8c-26.7 26.6-26.7 69.6 0 96.3l9 9 112.3 35v325c0 55 44.6 100 99.4 100h199V828c0-14.3 12-26 26-26h93c15 0 26 11.6 26 26v196h184c55 0 100-44.6 99-99.4V600.2L991 565l9-9c12.8-12.8 20-29.8 20-48 .3-18-7-35.3-19.7-48L560 20C547.4 7 530.4 0 512 0z" fill="#666"/><path d="M802.5 498.6c-5.5 0-11-2.2-15-6.3L565 269.7c-8.3-8.2-8.3-21.7 0-30 8.2-8.2 21.7-8.2 30 0l222.5 222.6c8.3 8.2 8.3 21.8 0 30-4 4.3-9.6 6.3-15 6.3zM487.2 181.8a21 21 0 1 0 42 0 21 21 0 1 0-42 0z" fill="#666"/></symbol><symbol id="icon-mine" viewBox="0 0 1024 1024"><path d="M511.8 51.5c-60.8 0-118 23.7-161 66.6-43 43-66.6 101-66.6 161s23.7 118 66.6 161c43 43 100 67 161 67 60.8 0 118-23 161-66s66.6-100 66.6-161-23.7-118-66.6-161c-43-43-100.2-66-161-66z" fill="#fff"/><path d="M305.2 579c68 42 140 64 209.4 64 69 0 140.5-21.8 208.4-63.4 56.4 36 104 86.6 137.6 146.5 32 57 50.4 121 53.5 186-4 3-11 6-20 9-21 9-49 17-80 24-57 13-155 27-302 27s-245-14-302-27c-31-6-58-15-80-23-9-3-15-6-20-9 3-67 23-134 58-192s82-106 138-140m2-59l-8 5C154 603 58 760 58 932c0 25 139.5 91 453.6 91 314 0 453.6-65 453.6-90 0-165-87.5-317-221.8-399-8.6-5.8-15.5-9.8-22-13-58.7 41-130 72.2-207 72.2-77.2 0-148.6-32-207.4-73z" fill="#666"/><path d="M511.8 51.5c60.8 0 118 23.7 161 66.6 43 43 66.6 101 66.6 161s-23.7 118-66.6 161-100 67-161 67-118-23-161-66-66.6-100-66.6-161 23.7-118 66.6-161c43-43 100.2-66 161-66m0-51c-154 0-278.6 124-278.6 278S358 558 511.8 558s278.6-125 278.6-279S665.7.6 511.8.6z" fill="#666"/><path d="M370.5 367c-9.3 0-18-5.2-22.6-14-41-78-10-174.2 68-214.4 12-6.5 28-1.5 34 11 6 12.4 1 27.8-11 34.2-26 13.2-45 35.7-53 63.2-9 27.6-7 57 7 82.7 6 12.4 1 28-11 34.2-4 2-8 3-12 3zM468 138.8a25 25 0 1 0 50 0 25 25 0 1 0-50 0z" fill="#666"/><path d="M723 579.7c-68 41.7-139.5 63.6-208.5 63.6-69.4 0-141.3-22-209.4-64.2-55 35-102 83-137 140-35 59-55 125-58 193 5 3 12 6 21 9 22 9 49 17 80 24 57 13 156 28 302 28 147 0 245-15 302-27 31-6 59-14 80-23 9-3 16-6 20-9-3-65-21-128-53-185-33-60-81-110-137-146z" fill="#fff"/></symbol><symbol id="icon-actionActive" viewBox="0 0 1024 1024"><path d="M512 54.2c-252 0-457.2 205.3-457.2 457.4S260 969 512 969s457.7-205 457.7-457.3S764.3 54.2 512 54.2z" fill="#c4e6ff"/><path d="M512 1022.2c-68.7 0-135.7-13.6-198.5-40.2-60.8-25.8-115.4-62.5-162.3-109.3-47-47-83.7-101.4-109.3-162.3-27-63-41-129.7-41-198.6S15 376 41 313.2c26-61 63-115.6 109.8-162.5S252.8 67 313.6 41.4c63-26.6 129.8-40 198.6-40s136 13.4 199 40c60.6 25.8 115 62.6 162 109.3 47 47 83.7 101.5 109.4 162.3 26.6 63 40 129.8 40 198.6 0 69-13.4 135.8-40 198.7-26 60.7-62.8 115.4-109.6 162.3-47 47-101.4 83.6-162.2 109.3-63 26-129.8 40-198.7 40zm0-968c-252 0-457.2 205.3-457.2 457.4S260 969 512 969s457.7-205 457.7-457.3S764.3 54.2 512 54.2z" fill="#159bff"/><path d="M323.2 842l51.4-409L703 182.6 649.2 591l-326 251zm101.3-380.2L391.8 722l207.8-159.8 34-260.2-209 159.8z" fill="#159bff"/><path d="M470.2 511.6c0 15 8 29 21 36.4 13 7.5 29 7.5 42 0s21-21.4 21-36.4c0-23.2-18.8-42-42-42s-42 19-42 42" fill="#159bff"/></symbol><symbol id="icon-recommandActive" viewBox="0 0 1024 1024"><path d="M512.5 26c-26.7 0-51.2 15.6-62.6 40L341 298.5 92 336.7c-25.6 4-47 22-55 46.8-8.3 24.7-2 52 16 70.6l183 189-42 261c-4.3 27 6.8 53 28.5 68 11.5 8 25.5 13 39.5 13 11.5 0 23-2 33.4-8l217.2-121L730 976c10.2 5.8 22 8.7 33.3 8.7 14 0 27.8-4.3 39.8-12.7 22-15.4 33-41.8 29-68l-43-261.4L972 454c18-18.5 24.3-45.8 16-70.5-8.2-24.8-29.5-42.8-55-46.8l-249.2-38.2L575 66.2c-11.3-24.6-35.6-40-62.5-40z" fill="#c4e6ff"/><path d="M512 49.8c25.8 0 49.4 15 60.3 38.6l104.5 224 240.4 37c24.7 3.8 45 21.2 53 45s2 50-15.3 68.2L778 644.3l41 252c4 25.3-6.7 50.8-27.4 65.6-11.5 8-25 12-38.5 12-11 0-22-3-32-9L512 849 302.4 966c-10 5.4-21 8.2-32.3 8.2-13 0-27-4-38-12.3-21-15-31-41-27-66l41-252L69 462c-17.3-18-23.4-44.4-15.5-68.2 8-23.7 28.5-41.2 53.2-45L347 312 452 88c11-23.6 35-38.6 60.7-38.6M512 0c-22.2 0-43.8 6.4-62.6 18.4s-33.5 29-43 49l-93 200-214 32.8C78 303.5 58 312.5 41.7 326.4c-16.2 13.7-28.5 31.8-35.3 52-6.8 20.4-7.8 42.2-3 63s15 40 30 55.5L192 660l-37 228c-3.3 21.5-.7 43.6 7.8 64s22 37.3 40 50c19.6 14 42.8 21.6 67.2 21.6 19.7 0 39-5 56.2-14.5h.2L512 906l185.4 103c17 9.7 36.6 14.8 56.4 14.8 24 0 47.2-7.4 67-21.4l.2-.2c17.8-12.7 31.7-30 40-50.3 8.4-20 11-42 7.5-64l-37-228 158.8-164c15-16 25.3-35 30-56 4.8-21 3.8-43-3-63s-19-38-35.3-52c-16.4-14-36.2-23-57.3-26l-214.3-33L617 67c-9.3-20-24-37-42.8-49-18.5-11.6-40-18-62.2-18z" fill="#159bff"/></symbol><symbol id="icon-cash" viewBox="0 0 1024 1024"><path d="M512 34C248.5 34 34 248.5 34 512s214.5 478 478 478c263.4 0 478-214.4 478-478 0-263.7-214.4-478-478-478zm0 904.6C276.8 938.6 85.3 747.2 85.3 512 85.3 276.6 276.7 85.2 512 85.2c235.2 0 426.7 191.3 426.7 426.6 0 235.2-191.4 426.6-426.7 426.6zM627.6 262l-76 139.8c-20.2 38-32.5 63.2-37 75.6h-1.4c-13.4-30.4-51-102-113-215.4h-71.6l132.8 228H352.6v50.5H480V610H352.7v51h127.6v101h63.4V660.8h123v-51h-123v-69.4h123V490H561.3l134-228h-67.6z"/></symbol><symbol id="icon-backIndex" viewBox="0 0 1024 1024"><path d="M774.4 473.6L561.6 252.8C548.8 238.4 531.2 232 512 232c-19.2 0-36.8 8-49.6 20.8L249.6 473.6c-22.4 22.4-19.2 43.2-16 51.2 3.2 6.4 11.2 22.4 36.8 22.4h30.4v169.6c0 38.4 27.2 75.2 67.2 75.2h89.6V612.8c0-19.2-3.2-30.4 16-30.4h72c19.2 0 16 11.2 16 30.4V792h89.6c40 0 67.2-36.8 67.2-75.2V547.2h30.4c25.6 0 33.6-16 36.8-22.4 8-8 9.6-27.2-11.2-51.2z" fill="#fff"/></symbol><symbol id="icon-detailCode" viewBox="0 0 1024 1024"><path d="M8.6 625H625V8.5H8.5V625zm521.7-522v427h-427V103h427z" fill="#fff"/><path d="M191.7 191.7h250v250h-250zm469.8 823.7h354v-354h-354v354zM920.8 756v165H756V756h165zm0-747.4h94.6v354h-94.6zM725.6 204H820v353.8h-94.4zm195.2 259h94.6v94.6h-94.6zM725.6 8.6H820v94.6h-94.4zm-717 717h552.2V820H8.6zm0 195.2h552.2v94.6H8.6z" fill="#fff"/></symbol><symbol id="icon-down" viewBox="0 0 1229 1024"><path d="M614.6 1024L1229 0H0l614.6 1024z" fill="#7D7D7D"/></symbol><symbol id="icon-heart" viewBox="0 0 1024 1024"><path d="M954 374.6l-1.7 21.5c-3 37-13 73-29.3 106-26.4 54-59.7 103-98.7 148-42.3 49-88.3 95-136 138-46 42-93.4 82-142 121-12 10-25.2 15-40.8 14-10.6-1-19.8-5-28-12-86.8-68-170-141-246-222-43.7-46-83-96-114.7-152-18.6-32-34.5-66-42-104-3-14-4-30-6-45l-.8-5v-25l1-5c1-7 1-14 2-21 8-52 27-99 60-140 44-53 99-85 168-91 36-3 70 2 103 16 38 15 70 39 96 69 5 5 9 11 13 16l4-4c22-28 48.4-51 80-68 46.4-25 96-33 148-25 60.4 11 109.4 41 148 88 37 46 57 98 62 156l1.6 21v8zm-55.3-3.5c-.6-8-1-16-2-25-5-46-22-88-53.6-122-42-46-94-69-157-62-43 5-80 24-111 54-21 21-36 46-47 72-3 7-8 12-15 12-8 0-13-4-16-11-9-22-21-44-38-62-35-40-80-63-134-65-50-1-94 16-130 50-59 57-79 128-64 208 6 31 20 58 35 85 30 54 69 102 112 147 71 75 149 143 231 208 3 3 5 3 8 0 46-36 91-74 134-113 47-42 93-87 135-135 38-44 70-91 95-143 14-30 21-62 22-95z"/></symbol><symbol id="icon-collection" viewBox="0 0 1024 1024"><path d="M752.2 939.4c-10.4 0-20.8-2.6-30.2-7.5L514.4 828 305 932.2c-20.3 10.8-48.3 9-68-5.6-19.6-14.2-29.8-39.4-25.7-64l43.2-224.2L89.8 484.7c-18-17.8-24.5-44.3-17-67.8 7.6-24 27.6-41 52.3-45l229-42 103-208c11-23 34-37 59-37s48 14 58 36l101 209 230 41c24 3 45 20 52 44 8 23 2 50-16 67L776 638l42 223.7c4 25-6 50-26 64.6-11 8-24 12.3-38 12.3zm-237.7-162l228 113.4c7.4 4 15 3 21-1.2 6-4.5 9-12 7.8-19.3L725 622l183.2-172.6c4.8-4.8 6.7-12.6 4.5-19.6-2.4-7.3-8.3-12.4-15.8-13.5l-253-44.8-113-229.2c-7-13.6-29-13.5-35 0l-112 229-252 46.4c-8 1.2-14 6.3-17 13.5-2 7.2 0 15 5 20.2L304 622l-48 249c-1 6.7 2 14.2 7.8 18.5 6.2 4.6 14.3 5 20.7 1.7l230-113.8zm0 0"/></symbol><symbol id="icon-hearted" viewBox="0 0 1024 1024"><path d="M512 895.4c-13 0-25.3-5-34.4-14L182 596c-.5-.4-114-100.7-114-226.3 0-148.7 94-241 245.7-241 80.2 0 154.5 54.7 198.3 95 43.8-40.3 118-95 198.3-95C862 128.7 956 221 956 369.7c0 109-86.8 201-113.5 226.3L546 881.6c-8.7 9-21 14-34 14z"/></symbol><symbol id="icon-voiceplay" viewBox="0 0 1024 1024"><path d="M856 512c0 31-17.8 58-44.4 72.6l-549 365-.8.5-.3 1c-13.5 8-29.3 12-46 12-50 0-90.7-37-90.7-84V147c0-46.6 40.6-84.4 90.6-84.4 16.8 0 32.6 4 46 11.7h.4l.7.5 549 365c26.7 15 44.5 42 44.5 73zm0 0" fill="#fff"/></symbol><symbol id="icon-voicepaused" viewBox="0 0 1024 1024"><path d="M849.5 904.3h-675c-31 0-56.3-25.2-56.3-56.2V173c0-31 25.3-56.2 56.3-56.2h675c31 0 56.3 25.3 56.3 56.3v675c0 31-25.3 57-56.3 57z" fill="#fff"/></symbol><symbol id="icon-voicerecord" viewBox="0 0 1024 1024"><path d="M512 704c105.6 0 192-86.4 192-192V256c0-105.6-86.4-192-192-192s-192 86.4-192 192v256c0 105.6 86.4 192 192 192z"/><path d="M832 512c0-19.2-12.8-32-32-32s-32 12.8-32 32c0 140.8-115.2 256-256 256S256 652.8 256 512c0-19.2-12.8-32-32-32s-32 12.8-32 32c0 166.4 128 300.8 288 316.8V896H320c-19.2 0-32 12.8-32 32s12.8 32 32 32h384c19.2 0 32-12.8 32-32s-12.8-32-32-32H544v-67.2c160-16 288-150.4 288-316.8z"/></symbol><symbol id="icon-emoji" viewBox="0 0 1024 1024"><path d="M510.8 1021.7C229.8 1021.7 1 793 1 512S230 2.3 511 2.3 1020.5 231 1020.5 512 792 1021.7 510.8 1021.7zm0-946.6c-241 0-437 196-437 437s196 437 437 437 437-196 437-437-196-437-437-437z"/><path d="M512 809.4c-101.5 0-195.6-46-258.2-126-12.4-15.8-9.6-38.6 6.3-51 16-12.4 39-9.6 52 6.2 49 62.3 122 98 201 98 80 0 154-36.4 202-99.7 13-16 36-19 52-7s19 35 6.8 51C710 762 615 809 513 809zM348.2 515.6c-30.2 0-54.7-24.4-54.7-54.6v-72.8c0-30.2 24.5-54.6 54.7-54.6s54.6 24.4 54.6 54.6V461c0 30.2-24.5 54.6-54.6 54.6zm327.6 0c-30 0-54.6-24.4-54.6-54.6v-72.8c0-30.2 24.5-54.6 54.6-54.6s54.7 24.4 54.7 54.6V461c0 30.2-24.5 54.6-54.7 54.6z"/></symbol><symbol id="icon-images" viewBox="0 0 1126 1024"><path d="M51.2 102.4h1024v51.2H51.2zM0 211.4v806c0 3.6 3.2 6.6 7.2 6.6h1112c4 0 7.2-3 7.2-6.6v-806c0-3.6-3.2-6.6-7.2-6.6H7.2c-4 0-7.2 3-7.2 6.6zm896 95.8a76.8 76.8 0 1 1 0 153.7 76.8 76.8 0 0 1 0-154zM102.3 901.6l309-493.6c3.8-7.2 10.2-7 14.2-.2l166.8 288c2 3.5 6.5 4.4 9.8 2l142-99.4a13.8 13.8 0 0 1 20 4l257 300c5 6.7 1 12.2-6 12.2H110c-8 0-11.4-5.7-7.7-13zm0-901.6H1024v51.2H102.4z"/></symbol><symbol id="icon-person" viewBox="0 0 1024 1024"><path d="M502.2 699.3c-143.8 0-260.5-142-260.5-317s116.7-317 260.5-317c144 0 260.7 142 260.7 317s-117 317-261 317zm0-576.5C390.7 122.8 300 239.2 300 382.3s90.7 259.4 202.2 259.4c111.6 0 202.4-116.4 202.4-259.4s-90.8-259.5-202.4-259.5zm369 836H152.8c-48.2 0-87.4-29.2-87.4-76.7v-20c0-43 32.6-89 74-104l178-71c15.2-5 32 3 37.3 18 5.5 15-2.4 31.8-17.5 37l-178 71c-18.5 6.7-35.4 30.5-35.4 50v20c0 16 13 19 29 19h718.8c16 0 29-3 29-19v-21c0-19-17-43-35.5-49.4l-197-72c-15-5-23-21.6-17-36.6 5.6-15 22-22.8 37-17.5L885 757c41.7 14.8 74.2 60.5 74.2 104v21c0 47.4-39.2 76.6-87.4 76.6z"/></symbol></svg>